<?xml version="1.0" standalone="no"?>
<!DOCTYPE svg PUBLIC "-//W3C//DTD SVG 1.1//EN" "http://www.w3.org/Graphics/SVG/1.1/DTD/svg11.dtd" >
<svg xmlns="http://www.w3.org/2000/svg">
<metadata>Generated by IcoMoon</metadata>
<defs>
<font id="varmo-icons" horiz-adv-x="1024">
<font-face units-per-em="1024" ascent="870.4" descent="-153.6" />
<missing-glyph horiz-adv-x="1024" />
<glyph unicode="&#x20;" horiz-adv-x="0" d="" />
<glyph unicode="&#xe000;" glyph-name="user-female" d="M960.032 61.312l-278.497 132.064c37.152 18.624 182.256 24.528 194.256 57.28 0 0-57.344 88.016-71.344 202.336-5.44 44.368-14.752 102.592-24 184.592-15.008 133.008-126.88 226.416-268.191 226.416h-0.512c-141.312 0-253.184-93.408-268.176-226.4-9.248-82-18.56-140.224-24.001-184.592-14-114.336-71.344-202.336-71.344-202.336 12-32.752 157.088-38.656 194.256-57.28l-278.512-132.080s-63.968-22.464-63.968-75.472v-84.528c0-35.376 28.624-61.312 63.968-61.312h896.064c35.344 0 63.968 25.936 63.968 61.312v84.528c0 53.008-63.968 75.472-63.967 75.472zM63.999-96v81.84c0 3.408 12.096 11.601 21.935 15.345 2.128 0.752 3.44 1.344 5.44 2.319l278.496 132.064c22.128 10.464 36.32 32.688 36.593 57.151 0.256 24.464-13.44 46.976-35.313 57.935-21.68 10.88-50.336 16.256-95.248 24.032-10.656 1.872-25.216 4.496-39.344 7.313 18.32 41.104 38.56 98.593 46.528 163.633 1.968 16.192 4.496 34.416 7.313 54.592 4.848 34.336 10.848 77.872 16.752 130.224 11.168 98.864 95.28 169.553 204.592 169.553h0.512c109.312 0 193.439-70.688 204.592-169.568 5.904-52.336 11.904-95.888 16.752-130.224 2.816-20.176 5.345-38.399 7.313-54.592 7.968-65.024 28.224-122.513 46.527-163.633-14.128-2.816-28.688-5.44-39.344-7.313-44.912-7.776-73.568-13.152-95.248-24.032-21.872-10.976-35.568-33.472-35.313-57.936 0.288-24.464 14.464-46.688 36.592-57.151l278.496-132.064c2-0.976 3.312-1.567 5.439-2.319 9.84-3.744 20.496-11.937 21.937-15.345l0.032-81.824h-896.032z" />
<glyph unicode="&#xe001;" glyph-name="people" d="M746 28.72l-201.471 111.602c74.88 58.912 95.216 174.688 95.216 239.601v135.12c0 89.472-118.88 189.12-238.288 189.12-119.376 0-241.408-99.664-241.408-189.12v-135.12c0-59.024 24.976-178.433 100.624-239.089l-206.672-112.112s-54-24.064-54-54.064v-81.088c0-29.84 24.224-54.063 54-54.063h692c29.808 0 54.031 24.224 54.031 54.063v81.088c0 31.808-54.032 54.063-54.032 54.063zM736.033-96.495h-672.031v57.216c4.592 3.344 11.008 7.216 16.064 9.536 1.504 0.688 3.008 1.408 4.432 2.225l206.688 112.096c18.848 10.224 31.344 29.184 33.248 50.527s-7.008 42.256-23.712 55.664c-53.664 43.024-76.656 138.32-76.656 189.152v135.12c0 45.968 86.656 125.12 177.408 125.12 92.432 0 174.288-78.064 174.288-125.12v-135.12c0-50.128-15.568-145.84-70.784-189.28-16.912-13.312-26-34.224-24.224-55.664 1.808-21.44 14.256-40.528 33.12-50.849l201.472-111.6c1.776-0.976 4.032-2.031 5.904-2.848 4.72-2 10.527-5.344 14.783-8.288v-57.888zM969.97 188.064l-204.465 111.601c74.88 58.912 98.224 174.688 98.224 239.601v135.12c0 89.472-121.872 190.128-241.28 190.128-77.6 0-156.943-42.192-203.119-96.225 26.336-1.632 55.376-1.664 80.464-9.664 33.712 26.256 76.368 41.872 122.656 41.872 92.432 0 177.279-79.056 177.279-126.128v-135.12c0-50.128-18.56-145.84-73.775-189.28-16.912-13.312-26-34.224-24.224-55.664 1.808-21.44 14.256-40.528 33.12-50.849l204.464-111.6c1.776-0.976 4.032-2.031 5.904-2.848 4.72-2 10.527-5.344 14.783-8.288v-56.912h-129.184c19.504-14.72 25.408-35.775 32.977-63.999h106.192c29.808 0 54.031 24.224 54.031 54.063v80.096c-0.016 31.84-54.048 54.096-54.048 54.096z" />
<glyph unicode="&#xe005;" glyph-name="user-l" d="M511.728 800c108.672 0 223.92-91.534 223.92-159.854v-159.92c0-61.552-25.6-179.312-94.256-233.376-17.504-13.776-26.592-35.681-23.968-57.809 2.624-22.16 16.592-41.313 36.848-50.625l278.496-132.064c2.176-0.992 26.688-5.104 26.688-39.345l0.032-62.464-895.488-0.048v64.944c0 25.44 19.088 33.425 26.72 36.944l281.024 132.624c20.16 9.248 34.065 28.32 36.769 50.32 2.72 22-6.16 43.84-23.456 57.712-66.481 53.376-97.456 170.704-97.456 233.185v159.92c0.016 66.848 116.416 159.855 224.128 159.854zM511.728 864.002c-141.312 0-288.127-117.938-288.127-223.857v-159.92c0-69.872 31.888-211.248 121.392-283.088l-281.040-132.64s-63.952-28.496-63.952-63.968v-96.032c0-35.344 28.64-63.968 63.951-63.968h895.552c35.344 0 63.968 28.624 63.968 63.968v96.032c0 37.6-63.968 63.968-63.968 63.968l-278.496 132.064c88.656 69.776 118.656 206.849 118.656 283.665v159.92c0 105.92-146.64 223.855-287.936 223.855v0z" />
<glyph unicode="&#xe006;" glyph-name="trophy" d="M735.808-63.872h-449.936c-17.68 0-32-14.32-32-32s14.32-32 32-32h449.936c17.68 0 32 14.32 32 32s-14.304 32-32 32zM1017.31 742.368c-3.024 14.88-16.159 25.568-31.343 25.568h-156.624v31.936c0 17.68-14.32 32-32 32h-575.536c-17.68 0-32-14.32-32-32v-31.936h-151.776c-15.184 0-28.319-10.688-31.344-25.568-0.944-4.624-22.4-116.752 39.903-193.152 35.84-43.92 90.607-66.928 162.495-68.976 40.992-121.152 144.064-210.864 268.192-224.24v-222.912h-95.776c-17.68 0-32-14.32-32-32s14.32-32 32-32h258.688c17.68 0 32 14.32 32 32s-14.32 32-32 32h-98.912v222.88c124.336 13.12 227.632 102.8 268.736 224.080 74.336 1.088 130.736 24.24 167.393 69.168 62.304 76.416 40.848 188.528 39.904 193.152zM96.401 589.44c-28.336 34.496-31.185 85.409-29.744 114.497h123.152v-108.032c0-17.296 1.6-34.16 3.936-50.769-43.68 4.080-76.447 18.832-97.344 44.304zM765.345 595.905c0-153.088-114.721-277.663-255.713-277.663-141.056 0-255.808 124.56-255.808 277.663v171.968h511.536v-171.968h-0.015zM927.6 589.442c-21.68-26.432-56.032-41.488-102.272-44.864 2.384 16.784 4.016 33.84 4.016 51.328v108.032h128c1.44-29.12-1.407-80-29.744-114.496z" />
<glyph unicode="&#xe007;" glyph-name="speedometer" d="M511.984 827.872c-281.968 0-511.345-229.408-511.345-511.376 0-177.152 89.68-339.185 239.903-433.408 14.944-9.472 34.689-4.88 44.097 10.096s4.88 34.72-10.096 44.096c-54.096 33.952-99.040 78.048-133.424 128.88l33.552 19.376c15.311 8.848 20.56 28.399 11.712 43.711-8.88 15.344-28.464 20.56-43.712 11.712l-33.6-19.392c-24.4 50.512-39.297 105.792-43.281 163.424h35.616c17.68 0 32 14.32 32 32s-14.32 32-32 32h-35.456c4.24 58.688 19.776 114.304 44.56 164.592l32.16-18.56c5.024-2.912 10.528-4.288 15.969-4.288 11.056 0 21.808 5.744 27.743 16 8.848 15.313 3.6 34.881-11.712 43.713l-31.84 18.368c32.112 46.832 72.864 87.296 119.984 119.023l18.016-31.2c5.936-10.288 16.688-16 27.743-16 5.44 0 10.944 1.376 15.969 4.288 15.312 8.848 20.56 28.399 11.712 43.712l-17.952 31.072c49.328 23.792 103.68 38.656 160.976 42.816v-39.872c0-17.68 14.32-32 32-32s32 14.32 32 32v40c58.592-4.080 114.128-19.392 164.384-43.951l-17.36-30.048c-8.848-15.312-3.6-34.88 11.712-43.712 5.024-2.912 10.528-4.288 15.969-4.288 11.056 0 21.808 5.712 27.743 16l17.28 29.936c46.688-31.776 87.072-72.144 118.88-118.816l-29.968-17.312c-15.312-8.848-20.56-28.399-11.712-43.711 5.936-10.288 16.688-16 27.743-16 5.44 0 10.944 1.376 15.969 4.288l30.128 17.392c24.592-50.273 39.952-105.824 44.048-164.433h-35.136c-17.68 0-32-14.32-32-32s14.32-32 32-32h35.12c-4.048-56.88-18.592-111.439-42.496-161.312l-31.68 18.288c-15.28 8.848-34.912 3.567-43.712-11.713-8.848-15.312-3.6-34.88 11.712-43.712l31.776-18.352c-35.103-52.24-81.439-97.393-137.359-131.824-15.056-9.28-19.712-29.008-10.464-44.032 6.064-9.808 16.528-15.216 27.28-15.216 5.712 0 11.536 1.536 16.752 4.752 152.464 93.904 243.472 256.784 243.472 435.632 0 281.952-229.408 511.36-511.376 511.36zM748.111 416.272c15.296 8.848 20.544 28.398 11.712 43.71-8.832 15.296-28.416 20.544-43.712 11.696l-173.824-100.352c-9.28 5.248-19.856 8.496-31.28 8.496-35.28 0-63.84-28.592-63.84-63.808 0-35.248 28.576-63.84 63.84-63.84 35.28 0 63.84 28.592 63.84 63.84 0 0.064-0.016 0.145-0.016 0.209z" />
<glyph unicode="&#xe008;" glyph-name="social-youtube" d="M940.736 674.304c-27.744 19.968-105.056 46.496-429.008 46.496-347.152 0-398.656-30.464-415.185-40.432-87.968-52.848-96.319-286.815-97.087-334.256 1.056-62.656 11.184-271.12 97.023-322.688 16.496-9.936 67.712-40.224 415.248-40.224 324.16 0 401.376 26.4 429.008 46.288 74.976 53.936 83.6 239.68 83.808 317.439-0.192 62.528-6.752 271.872-83.807 327.376zM903.36 81.424c-11.152-8.032-75.186-34.223-391.634-34.223-305.936 0-370.128 23.744-382.256 31.056-30.88 18.528-63.472 116.88-66.031 268.032 2.528 150.816 35.568 260.912 66.097 279.216 12.16 7.344 76.592 31.279 382.191 31.279 316.192 0 380.4-26.368 391.633-34.433 27.408-19.744 56.752-123.68 57.184-275.632-0.432-154.336-29.968-245.712-57.184-265.296zM720.415 377.17l-287.934 176.689c-9.904 5.968-22.225 6.128-32.257 0.464-10.065-5.68-16.288-16.336-16.288-27.872v-353.44c0-11.536 6.224-22.192 16.288-27.872 4.88-2.752 10.32-4.128 15.712-4.128 5.712 0 11.472 1.536 16.527 4.592l287.936 176.752c9.6 5.808 15.472 16.191 15.472 27.407s-5.856 21.632-15.456 27.408zM447.953 229.699v240.097l194-120.032z" />
<glyph unicode="&#xe009;" glyph-name="social-twitter" d="M684.4 705.312c52.88 0 100.621-21.636 134.253-56.372 41.84 8.096 81.28 22.848 116.721 43.279-13.712-41.632-42.88-76.56-80.815-98.655 37.12 4.368 72.656 13.904 105.632 28.16-24.72-35.744-55.84-67.216-91.775-92.368 0.336-7.632 0.528-15.344 0.528-23.023 0-235.728-185.008-507.615-523.312-507.615-103.84 0-200.56 29.632-281.903 80.224 14.368-1.68 29.008-2.527 43.84-2.527 86.16 0 165.504 28.496 228.464 76.4-80.528 1.376-148.496 53.008-171.808 123.84 11.216-2.096 22.752-3.216 34.624-3.216 16.72 0 33.008 2.16 48.399 6.256-84.128 16.336-147.536 88.448-147.536 174.929v2.288c24.816-13.376 53.152-21.408 83.345-22.336-49.376 32.032-81.84 86.561-81.84 148.465 0 32.72 9.088 63.376 24.912 89.632 90.689-107.872 226.208-178.912 379.088-186.384-3.152 13.024-4.784 26.784-4.784 40.624 0 98.544 82.352 178.4 183.967 178.4zM960.189 621.691v0zM684.397 769.308c-125.664 0-229.773-91.809-245.806-210.433-102.816 20.656-196.32 75.088-263.504 154.944-12.192 14.512-30.16 22.815-48.977 22.815-1.664 0-3.344-0.064-5.023-0.192-20.592-1.648-39.12-13.12-49.776-30.784-22.32-37.024-34.097-79.44-34.097-122.656 0-28.848 5.184-56.943 15.008-83.216-10.464-11.632-16.496-26.848-16.496-42.912v-2.288c0-62.688 24.784-120.864 65.936-164.464-2.368-10.976-1.84-22.464 1.776-33.472 14.192-43.184 40.032-80.399 73.536-108.751-22.496-5.008-45.712-7.536-69.408-7.536-12.528 0-24.721 0.688-36.257 2.097-2.56 0.32-5.088 0.433-7.632 0.433-26.88 0-51.28-16.944-60.336-42.784-9.936-28.32 1.089-59.712 26.561-75.568 94.528-58.816 203.712-89.872 315.712-89.872 364.032 0 583.008 284.976 587.264 563.344 29.792 24.656 56.128 53.185 78.448 85.152 8.128 10.688 12.96 24.032 12.96 38.496 0 21.776-10.895 41.024-27.487 52.593 7.184 24.624-1.009 51.28-21.009 67.568-11.68 9.504-26 14.336-40.4 14.336-11.008 0-22.032-2.816-31.968-8.561-21.152-12.192-43.776-21.841-67.601-28.785-43.105 32.432-96.545 50.496-151.425 50.497z" />
<glyph unicode="&#xe00a;" glyph-name="social-tumblr" d="M528.016 800.256l-0.002-223.871h224.32v-95.968h-223.328l-0.32-278.528c0-51.776 2.688-85.009 8.16-99.745 8.528-23.248 39.568-53.008 97.185-53.008 44.688 0 104.977 13.44 150.16 47.248v-149.312c-37.68-17.968-72.72-25.216-103.248-32.464-30.56-7.216-63.663-10.848-99.151-10.848-39.536 0-153.664 1.088-200.496 120.399-8.432 21.472-12.655 52.655-12.655 93.472v362.624h-128.848l0.624 98.128c42.656 0 170.624 25.904 170.624 221.872zM528.014 864.257l-116.976 0.002c-35.344 0-64-28.656-64-64 0-146.496-81.632-157.872-106.624-157.872-35.216 0-63.84-28.464-64-63.68l-0.624-98.128c-0.096-17.024 6.624-33.376 18.624-45.472 12.032-12.064 28.336-18.849 45.376-18.849h64.848v-298.624c0-49.376 5.6-87.632 17.088-116.88 28.848-73.44 97.376-161.009 260.064-161.009 40.288 0 78.592 4.224 113.872 12.56l7.056 1.664c29.872 7.024 68.032 15.776 109.008 35.313 22.288 10.624 36.464 33.088 36.464 57.776v149.312c0 24.224-13.68 46.367-35.344 57.215-9.056 4.56-18.88 6.783-28.656 6.783-13.568 0-27.057-4.32-38.337-12.752-38.096-28.528-86.848-34.496-111.808-34.496-25.6 0-35.119 9.28-37.215 11.744-1.088 5.024-4.128 23.776-4.128 77.009l0.224 214.528h159.408c35.344 0 64 28.656 64 64v95.968c0 35.344-28.656 64-64 64h-160.32v159.888c0 35.344-28.656 64-64 64v0z" />
<glyph unicode="&#xe00b;" glyph-name="social-facebook" d="M581.76 783.504c3.808 0 5.999-0.159 5.999-0.159h83.568l-0.432-96h-83.008c-45.68 0-44.624-39.008-44.624-39.008v-152.192h161.632l-22.56-95.872h-139.6v-479.776h-95.904l-0.064 479.776h-127.408l-0.256 95.872h127.712v149.184c0.016 130.080 108.048 138.176 134.944 138.176zM671.327 783.345v0zM581.76 847.505c-23.008 0-67.97-3.809-110.562-29.473-40.32-24.256-88.368-73.936-88.368-172.688v-85.184h-63.712c-17.008 0-33.312-6.784-45.344-18.816-12-12.064-18.72-28.368-18.655-45.408l0.256-95.872c0.128-35.248 28.752-63.776 64-63.776h63.408l0.064-415.776c0-35.344 28.656-64 64-64h95.904c35.344 0 64 28.656 64 64v415.776h75.6c28.4 0 53.408 18.72 61.408 45.968l22.56 95.872c5.68 19.344 1.903 40.256-10.192 56.368-12.064 16.16-31.057 25.664-51.217 25.664h-97.632v63.152l63.632 0.032c35.216 0 63.84 28.464 64 63.712l0.432 92.752c0.064 1.184 0.097 2.336 0.097 3.536 0 35.344-28.592 64-63.936 64h-81.936c-1.84 0.096-4.496 0.16-7.807 0.161z" />
<glyph unicode="&#xe00c;" glyph-name="social-dropbox" d="M1023.42 639.248c-0.72 10.224-6.287 19.474-14.976 24.914l-285.184 177.968c-11.6 7.216-26.432 6.319-37.056-2.289l-174.224-140.944-174.192 140.944c-10.592 8.56-25.536 9.535-37.056 2.287l-285.184-177.968c-8.688-5.44-14.257-14.688-14.977-24.912-0.752-10.224 3.472-20.159 11.312-26.751l165.216-138.816-141.536-111.184c-8.096-6.32-12.624-16.177-12.224-26.417s5.681-19.664 14.225-25.36l130.976-87.312c-6.432-5.84-10.544-14.208-10.544-23.6v-128.336c0-11.12 5.776-21.44 15.248-27.28l321.968-182.432c5.12-3.152 10.944-4.721 16.752-4.721s11.632 1.6 16.784 4.752l318.224 182.432c9.472 5.84 15.216 16.16 15.216 27.248v150.528c0 2.064-0.24 4.080-0.608 6.032l124.048 82.688c8.528 5.68 13.809 15.088 14.225 25.328 0.4 10.256-4.096 20.080-12.16 26.416l-140.912 111.152 165.312 138.88c7.856 6.592 12.080 16.527 11.328 26.751zM736.673 473.346l-224.688-140.784-224.688 140.784 224.688 146.224zM86.801 633.153l228.464 142.592 142.368-115.184-227.344-147.968zM229.921 433.777l225.969-141.6-128.064-98.032-218 145.312zM222.018 187.777l89.344-59.567c11.344-7.568 26.319-7.057 37.184 1.216l129.408 99.040v-282.8l-255.936 143.68v98.432zM798.209 89.346l-256.256-145.681v287.776l132.656-101.968c5.712-4.4 12.624-6.624 19.504-6.624 6.192 0 12.368 1.776 17.744 5.376l86.336 57.568v-96.448h0.016zM913.457 339.521l-218.031-145.327-127.44 97.936 226 141.632zM793.666 512.595l-227.345 147.968 142.4 115.184 228.464-142.592z" />
<glyph unicode="&#xe00d;" glyph-name="social-dribbble" d="M511.984 863.728c-69.856 0-136.464-14.111-197.184-39.567-2.112-0.672-4.177-1.552-6.145-2.672-181.264-78.816-308.384-259.553-308.384-469.505 0-282.16 229.568-511.712 511.712-511.712 282.192 0 511.744 229.568 511.744 511.712 0 282.192-229.552 511.744-511.744 511.744zM959.729 351.984c0-3.584-0.192-7.119-0.272-10.671-49.024 13.008-173.393 37.44-326.801 3.743-13.519 30.895-28.512 62.575-45.279 94.815-1.408 2.704-2.784 5.28-4.176 7.952 164.128 63.344 233.888 148.672 262.768 201.952 70.688-79.216 113.761-183.552 113.761-297.792zM797.537 696.562c-14.912-35.2-69.039-126-244.719-191.888-78.897 144.224-140.225 230.672-174.593 274.64 42.256 13.264 87.184 20.416 133.76 20.416 108.432 0 207.983-38.768 285.552-103.168zM316.050 754.481c27.216-33.28 90.384-117.056 175.104-270.447-200-60.288-362.448-53.040-418.832-47.792 26.816 140.144 119.072 257.312 243.729 318.239h-0.001zM64.273 351.986c0 6.896 0.21 13.745 0.53 20.577 19.248-1.936 49.152-4.079 88.288-4.079 86.895 0 217.712 10.752 369.008 58.144 2.848-5.376 5.664-10.736 8.544-16.272 14.432-27.776 27.487-55.185 39.407-82.065-27.376-8.608-55.392-19.072-83.872-31.969-182.624-82.704-268.192-200.704-298.673-252.336-76.272 80.32-123.232 188.752-123.232 308zM236.1-0.236c16.24 30.752 90.607 154.082 276.447 238.258 27.968 12.672 55.519 22.784 82.384 30.912 60.736-154.32 81.809-281.568 88.177-330.593-52.752-21.904-110.528-34.064-171.12-34.064-104.016 0-199.792 35.76-275.888 95.487zM743.618-31.034c-9.232 61.6-32.144 177.392-85.969 315.664 148.448 29.552 265.952 0.56 295.616-8.080-22.224-130.208-100.735-241.488-209.647-307.584z" />
<glyph unicode="&#xe00e;" glyph-name="shield" d="M907.952 719.52c-11.872 11.088-27.503 17.217-43.663 17.217-1.472 0-2.943-0.064-4.399-0.16-0.912-0.064-11.185-0.688-27.28-0.688-26.656 0-78.688 1.808-127.969 13.936-63.664 15.632-137.12 88.16-158.496 102.464-10.752 7.184-23.152 10.783-35.568 10.783-12.368 0-24.784-3.6-35.536-10.752-2.592-1.744-79.504-84.032-154.752-102.496-49.248-12.128-102.288-13.936-128.912-13.936-16.096 0-26.368 0.624-27.376 0.688-1.408 0.096-2.816 0.16-4.225 0.16-16.192 0-31.872-6.16-43.776-17.28-12.944-12.096-20.32-29.008-20.32-46.72v-160.032c0-591.632 387.12-667.808 403.568-670.783 3.744-0.656 7.536-1.008 11.313-1.008s7.601 0.336 11.313 1.008c16.432 2.976 406.399 79.151 406.399 670.783v160.032c0.032 17.744-7.344 34.688-20.319 46.784zM864.305 512.704c0-544.912-353.714-607.777-353.714-607.777s-350.88 62.88-350.88 607.776v160.032s12.096-0.848 31.68-0.848c33.568 0 90.032 2.464 144.16 15.775 88.624 21.744 175.024 111.408 175.024 111.408s90.256-89.664 178.784-111.408c54.192-13.312 109.681-15.775 143.249-15.775 19.568 0 31.681 0.848 31.681 0.848s0.016-20.352 0.016-160.031h0.001zM647.599 517.759c-12.496 12.496-32.769 12.496-45.249 0l-90.512-90.512-90.512 90.512c-12.496 12.496-32.769 12.496-45.265 0s-12.496-32.769 0-45.249l90.512-90.512-90.512-90.512c-12.496-12.481-12.496-32.753 0-45.249s32.769-12.496 45.265 0l90.512 90.512 90.512-90.512c12.481-12.496 32.753-12.496 45.249 0s12.496 32.769 0 45.249l-90.512 90.512 90.512 90.512c12.496 12.481 12.496 32.753 0 45.249z" />
<glyph unicode="&#xe016;" glyph-name="magnet" d="M960.288 803.824v29.008c0 17.68-14.32 32-32 32h-224.624c-17.68 0-32-14.32-32-32v-130.656c0-0.048 0.032-0.096 0.032-0.144v-397.52c0-96.32-54.336-174.656-150.656-174.656s-168.656 78.336-168.656 174.656v499.312h-0.096v29.008c0 17.68-14.32 32-32 32h-224.624c-17.68 0-32-14.32-32-32v-130.656c0-0.656 0.336-1.2 0.368-1.84v-410.496c0-248.912 198.784-450.656 447.664-450.656s448.656 201.744 448.656 450.656v513.984zM896.288 800.832v-128.336h-160.256v128.336h160.256zM288.288 800.832v-128.336h-160.256v128.336h160.256zM511.68-96.832c-213.216 0-383.663 173.472-383.663 386.655v318.672h160.336v-303.984c0-131.808 100.848-238.655 232.655-238.655s214.672 106.848 214.672 238.655v303.984h160.656v-318.672c0-213.184-171.424-386.655-384.656-386.655z" />
<glyph unicode="&#xe01b;" glyph-name="game-controller" d="M743.216 788.448c-25.6 12.016-49.806 23.328-71.838 34.384-56.464 28.288-107.664 42.032-156.464 42.032-98.288 0-166.304-56.704-208.96-99.36l-206.848-207.072c-110.688-110.8-128.368-223.6-57.265-365.808 11.024-22.080 22.368-46.336 34.368-72.032 64.704-138.384 131.584-281.487 241.056-281.487 3.072 0 6.112 0.096 9.216 0.336 112.976 8.848 145.023 154.288 173.312 282.592 4.496 20.32 8.752 39.809 13.12 57.28 7.6 30.208 22.56 48.976 63.552 90.063l5.632 5.664 3.472 3.472 9.12 9.088c41.088 41.088 59.856 56.032 90.096 63.664 17.312 4.352 36.752 8.64 57.024 13.088 128.224 28.304 273.6 60.368 282.399 173.521 8.88 114.832-138.464 183.84-280.992 250.575zM958.466 543.665c-6.224-79.776-184.813-103.324-291.102-129.98-47.008-11.872-75.616-36.752-118.784-79.936-3.008-3.008-6.032-6.016-9.088-9.071-3.024-3.024-6.032-6.097-9.057-9.089-43.168-43.216-68-71.808-79.824-118.88-26.672-106.384-50.191-285.168-129.871-291.44-1.44-0.112-2.881-0.145-4.321-0.145-84.544 0-155.68 192.24-218.447 317.664-63.744 127.504-36.433 210.224 45.359 292.096 15.696 15.727 35.216 35.247 59.136 59.183 24.432 24.464 53.487 53.552 87.919 88 23.904 23.936 43.408 43.424 59.12 59.184 50.8 50.848 101.936 80.64 163.92 80.64 37.808 0 79.632-11.056 127.872-35.248 127.456-63.904 323.888-136.48 317.168-222.978zM478.788 512.725h64v64h-64v-64zM478.788 608.725h64v64h-64v-64zM574.788 608.725h64v64h-64v-64zM574.788 512.725h64v64h-64v-64zM329.893 320.564l24.336 24.336c12 12 12 31.472 0 43.456-12 12-31.44 12-43.44 0l-24.352-24.352-24.352 24.352c-12 12-31.44 12-43.44 0s-12-31.456 0-43.456l24.352-24.352-24.352-24.352c-12-11.984-12-31.44 0-43.44s31.456-12 43.44 0l24.352 24.336 25.056-25.056c12-12 31.44-12 43.44 0s12 31.472 0 43.472z" />
<glyph unicode="&#xe035;" glyph-name="handbag" d="M1022.74-78.64l-83.407 503.777c-7.44 65.312-66.977 118.432-132.721 118.432h-70.656v85.28c0 130.16-92.848 236.032-222.976 236.032-130.096 0-224.943-105.872-224.943-236.032v-85.28h-76.672c-65.744 0-125.28-53.12-132.528-117.056l-77.28-504.16c-2.976-26.56 2.225-47.504 15.408-62.288 12.432-13.904 30.527-20.977 53.743-20.977h873.568c32.912 0 51.776 13.216 61.841 24.32 9.216 10.208 19.648 28.144 16.623 57.951zM352.049 628.865c0 94.848 66.127 172.031 160.943 172.031s158.977-77.184 158.977-172.031v-85.28h-319.92zM947.168-96.446l-872.498-0.449c-5.504 0-11.008 2.944-9.712 10.688l77.248 504.096c3.84 33.44 35.504 61.681 69.152 61.681h76.689v-72.928c-19.072-11.072-32.048-31.488-32.048-55.137 0-35.344 28.656-64 64-64s64 28.656 64 64c0 23.616-12.928 44-31.952 55.088v72.992h319.904v-72.992c-19.008-11.088-31.952-31.488-31.952-55.088 0-35.344 28.656-64 64-64s64 28.656 64 64c0 23.648-12.976 44.065-32.048 55.152v72.928h70.656c33.664 0 65.313-28.256 69.408-63.439l83.344-503.28c0.4-4.096-2.815-9.312-12.191-9.312z" />
<glyph unicode="&#xe04d;" glyph-name="basket-loaded" d="M1015.66 580c-5.968 8.464-15.663 13.502-25.999 13.502h-99.744l-205.136 174.832c-24.976 24.976-65.519 25.008-90.495 0l-201.648-174.832h-82.096l-51.408 177.28c-20.16 69.808-68.065 77.344-87.713 77.344h-137.088c-17.568 0-31.776-14.224-31.776-31.775s14.224-31.775 31.775-31.775h137.056c4.336 0 17.568 0 26.593-31.184l176.848-649.936c3.84-13.712 16.336-23.184 30.592-23.184h431.968c13.408 0 25.376 8.4 29.904 21.024l152.256 449.68c3.504 9.744 2.048 20.592-3.888 29.023zM639.537 723.070l152.032-129.584h-304.112zM815.025 143.807h-385.487l-101.152 386.128h616.096zM752.002 15.871c-44.192 0-80-35.808-80-80s35.808-80 80-80 80 35.808 80 80c0 44.192-35.808 80-80 80zM464.002 15.871c-44.192 0-80-35.808-80-80s35.808-80 80-80 80 35.808 80 80c0 44.192-35.808 80-80 80z" />
<glyph unicode="&#xe04e;" glyph-name="basket-l" d="M1015.66 580c-5.968 8.464-15.662 13.502-25.998 13.502h-679.136l-51.408 177.28c-20.16 69.808-68.065 77.344-87.713 77.344h-137.072c-17.568 0-31.776-14.224-31.776-31.775s14.224-31.775 31.775-31.775h137.056c4.336 0 17.568 0 26.593-31.184l176.848-649.936c3.84-13.712 16.336-23.184 30.592-23.184h431.968c13.408 0 25.376 8.4 29.904 21.024l152.256 449.68c3.504 9.744 2.048 20.592-3.888 29.023zM815.026 143.806h-385.487l-101.152 386.128h616.096zM752.003 15.87c-44.192 0-80-35.808-80-80s35.808-80 80-80 80 35.808 80 80c0 44.192-35.808 80-80 80zM464.003 15.87c-44.192 0-80-35.808-80-80s35.808-80 80-80 80 35.808 80 80c0 44.192-35.808 80-80 80z" />
<glyph unicode="&#xe04f;" glyph-name="bag" d="M864 705.296h-191.185v61.376c0 52.944-43.056 96-96 96h-127.632c-52.944 0-96-43.056-96-96v-61.376h-193.184c-35.344 0-64-28.656-64-64v-735.968c0-35.344 28.656-64 64-64h704c35.344 0 64 28.656 64 64v735.968c0 35.344-28.656 64-64 64h0.001zM417.184 766.672c0 17.664 14.336 32 32 32h127.632c17.664 0 32-14.336 32-32v-61.376h-191.632v61.376zM864-94.672h-704v735.968h193.184v-65.84s-0.848-31.968 31.809-31.968c36 0 32.192 31.968 32.192 31.968v65.84h191.632v-65.84s-2.128-32.128 31.872-32.128c32 0 32.128 32.128 32.128 32.128v65.84h191.184v-735.968z" />
<glyph unicode="&#xe054;" glyph-name="trash" d="M896.8 704.976l-225.277-0.001v87.264c0 40.528-33.008 72.496-73.536 72.496h-171.984c-40.528 0-73.52-31.968-73.52-72.496v-87.264h-225.28c-17.664 0-32-14.336-32-32s14.336-32 32-32h44.016l74.24-739.92c3.104-34.624 32.607-61.776 67.136-61.776h398.8c34.528 0 64 27.152 67.088 61.473l74.304 740.24h44.016c17.68 0 32 14.336 32 32s-14.32 31.984-32 31.984zM416.482 792.238c0 5.232 4.271 9.505 9.52 9.505h171.984c5.248 0 9.536-4.272 9.536-9.505v-87.264h-191.040zM714.77-93.202c-0.16-1.776-2.256-3.536-3.376-3.536h-398.8c-1.12 0-3.232 1.744-3.425 3.84l-73.632 733.856h552.912z" />
<glyph unicode="&#xe055;" glyph-name="tag" d="M1023.98 447.728l-0.001 338.367c0 42.944-34.944 77.904-77.872 77.904h-345.376c-21.68 0-54.496 0-75.92-21.44l-505.936-505.952c-12.16-12.16-18.88-28.304-18.88-45.487 0-17.216 6.688-33.376 18.849-45.536l386.8-386.72c12.112-12.176 28.272-18.864 45.456-18.864s33.359 6.688 45.487 18.849l505.952 505.968c21.696 21.648 21.568 52.816 21.441 82.912zM957.295 410.062l-506.417-505.936-386.752 387.216 505.392 505.504c5.088 3.152 23.408 3.152 30.992 3.152l14.4-0.048 331.2 0.048c7.664 0 13.872-6.24 13.872-13.904v-338.624c0.064-12.176 0.129-32.544-2.688-37.408zM768.014 735.999c-70.688 0-128-57.312-128-128s57.312-128 128-128c70.688 0 128 57.312 128 128s-57.312 128-128 128zM768.014 543.999c-35.344 0-64 28.656-64 64s28.656 64 64 64 64-28.656 64-64-28.656-64-64-64z" />
<glyph unicode="&#xe07f;" glyph-name="camera" d="M928 640h-147.184l-76.816 128h-384l-76.8-128h-147.2c-32 0-96-32-96-95.008v-512.992c0-53.008 48-96 89.328-96h840.672c42 0 94 44.992 94 94.992v513.008c0 32-32 96-96 96zM960 30.992c0-12.624-20.463-30.288-29.999-31.008h-840.48c-7.408 0.608-25.52 15.040-25.52 32.016v512.992c0 20.273 27.232 30.496 32 31.008h183.44l76.8 128h313.648l57.12-96.944 17.6-31.056h183.392c22.56 0 31.68-29.472 32-32v-513.008zM512.001 544c-123.712 0-224-100.288-224-224s100.288-224 224-224 224 100.288 224 224-100.288 224-224 224zM512.001 160c-88.224 0-160 71.776-160 160s71.776 160 160 160 160-71.776 160-160-71.776-160-160-160z" />
<glyph unicode="&#xe081;" glyph-name="clock-l" d="M512 864c-282.768 0-512-229.232-512-512 0-282.784 229.232-512 512-512 282.784 0 512 229.216 512 512 0 282.768-229.216 512-512 512zM512-97.008c-247.024 0-448 201.984-448 449.009s200.976 448 448 448 448-200.976 448-448-200.976-449.009-448-449.009zM544 364.992v307.006c0 17.664-14.336 32-32 32s-32-14.336-32-32v-320c0-9.056 3.792-17.199 9.856-23.007 0.528-0.624 0.96-1.296 1.536-1.888l158.384-158.4c12.496-12.481 32.752-12.481 45.248 0 12.496 12.496 12.496 32.769 0 45.265z" />
<glyph unicode="&#xe087;" glyph-name="eye" d="M515.472 542.592c-106.032 0-192-85.968-192-192 0-106.016 85.968-192 192-192s192 85.968 192 192-85.968 192-192 192zM515.472 222.592c-70.576 0-129.473 58.816-129.473 129.393s57.424 128 128 128c70.592 0 128-57.424 128-128s-55.936-129.393-126.527-129.393zM1023.68 359.424c-0.368 1.616-0.207 3.325-0.688 4.909-0.208 0.672-0.624 1.056-0.864 1.647-0.336 0.912-0.256 1.984-0.72 2.864-93.072 213.104-293.664 335.76-507.424 335.76s-418.368-122.432-511.488-335.552c-0.4-0.896-0.336-1.824-0.656-2.849-0.224-0.624-0.688-0.976-0.896-1.567-0.496-1.616-0.304-3.296-0.607-4.928-0.592-2.88-1.136-5.68-1.136-8.592 0-2.944 0.544-5.664 1.136-8.592 0.32-1.6 0.112-3.344 0.608-4.88 0.208-0.72 0.672-1.023 0.896-1.68 0.336-0.88 0.256-1.968 0.656-2.848 93.136-213.056 295.744-333.712 509.504-333.712 213.776 0 416.336 120.4 509.44 333.505 0.464 0.912 0.368 1.872 0.72 2.88 0.224 0.56 0.655 0.976 0.848 1.6 0.496 1.568 0.336 3.28 0.688 4.912 0.56 2.864 1.088 5.664 1.088 8.624 0 2.816-0.528 5.601-1.104 8.497zM512 63.405c-181.296 0-359.743 95.568-447.423 287.681 86.848 191.472 267.68 289.504 449.424 289.504 181.68 0 358.496-98.144 445.376-289.712-86.816-191.408-265.633-287.473-447.377-287.473z" />
<glyph unicode="&#xe08e;" glyph-name="lock" d="M800 480h-32v122.128c0 146.848-106.256 261.872-257.184 261.872-151.536 0-254.816-117.472-254.816-261.872v-122.128h-32c-70.592 0-128-57.408-128-128v-384c0-70.592 57.408-128 128-128h576c70.592 0 128 57.408 128 128v384c0 70.592-57.408 128-128 128zM320 602.128c0 109.088 74.56 197.872 190.816 197.872 115.056 0 193.184-86.912 193.184-197.872v-122.128h-384v122.128zM864.001-32c0-35.28-28.72-64-64-64h-576c-35.28 0-64 28.72-64 64v384c0 35.28 28.72 64 64 64h576c35.28 0 64-28.72 64-64v-384zM512.001 288c-35.344 0-64-28.656-64-64 0-23.632 12.96-44.032 32-55.12v-104.88c0-17.664 14.336-32 32-32s32 14.336 32 32v104.88c19.040 11.088 32 31.504 32 55.12 0 35.344-28.656 64-64 64z" />
<glyph unicode="&#xe601;" glyph-name="worldglobal" d="M448.192-31.936c-131.104 0-262.208 49.92-362.016 149.696l45.248 45.248c174.688-174.656 458.912-174.592 633.6 0 174.656 174.72 174.656 458.944 0 633.568l45.248 45.248c199.616-199.552 199.616-524.384 0-724.064-99.84-99.776-230.944-149.696-362.080-149.696zM448 96c-211.744 0-384 172.256-384 384s172.256 384 384 384 384-172.256 384-384-172.288-384-384-384zM448 800c-176.48 0-320-143.552-320-320s143.552-320 320-320 320 143.552 320 320-143.552 320-320 320zM288-96h320v-64h-320v64zM462.208 201.088l32.48 226.976-137.728 75.68 79.392 107.040-12.704 4.928-111.584-27.968-71.424 59.68 41.056 49.152 46.4-38.816 99.744 25.024 109.888-42.688-85.664-115.584 112.256-61.696-12.576-87.904 47.936 45.696 41.216 167.712 62.176-15.264-45.728-185.888zM343.296 305.28l-63.008 11.328 12.064 66.944-71.872 7.936 7.008 63.648 140-15.456z" />
<glyph unicode="&#xe602;" glyph-name="panties" d="M1024 544h-1024v192h1024v-192zM64 608h896v64h-896v-64zM608-32.32h-192v64.32c0 158.784-129.184 288-288 288h-128v159.904h64v-95.904h64c194.080 0 352-157.92 352-352v-0.32l64 0.32c0 194.080 157.92 352 352 352h64v95.904h64v-159.904h-128c-158.816 0-288-129.216-288-288v-64.32z" />
<glyph unicode="&#xe603;" glyph-name="tees" d="M831.84-160h-640v640h64v-576h512v576h64zM32 380.8l-33.92 339.136 215.744 144.064h201.696v-32c0-52.928 43.072-96 96-96s96 43.072 96 96v32h201.664l216.672-144-33.088-339.136-63.68 6.208 29.344 300.928-168.544 112h-121.568c-14.88-72.928-79.52-128-156.8-128s-141.92 55.072-156.768 128h-121.504l-167.648-111.936 30.080-300.864-63.68-6.4z" />
<glyph unicode="&#xe604;" glyph-name="shorts" d="M928 640h-832v192h832v-192zM160 704h704v64h-704v-64zM246.688 319.488l-138.336 3.104 1.44 63.968 91.2-2.048 56.736 169.632 60.672-20.288zM995.36-128h-378.432l-104.928 314.176-104.96-314.176h-378.4l67.52 675.2 63.68-6.4-60.48-604.8h261.6l151.040 452.192 151.072-452.192h261.568l-60.48 604.8 63.68 6.4zM777.28 319.488l-71.68 214.368 60.672 20.288 56.768-169.632 91.168 2.048 1.44-63.968z" />
<glyph unicode="&#xe605;" glyph-name="tie" d="M696.992 544h-337.984l-80 320h497.984l-80-320zM408.992 608h238.016l48 192h-334.016l48-192zM512-164.864l-259.904 148.512 100.544 502.624 62.72-12.544-91.456-457.376 188.096-107.488 189.44 108.256-61.152 458.656 63.424 8.448 66.848-501.344zM602.722 223.538l10.534-63.13-192.010-32.040-10.534 63.13 192.010 32.040zM602.718 95.53l10.534-63.13-192.010-32.040-10.534 63.13 192.010 32.040zM602.726 351.542l10.534-63.13-192.010-32.040-10.534 63.13 192.010 32.040z" />
<glyph unicode="&#xe608;" glyph-name="paypal" d="M318.753 8.566h-215.652c-8.752 0-17.154 3.851-22.756 10.678s-7.877 15.579-6.302 24.331l138.284 752.159c8.227 41.135 42.010 68.441 84.371 68.441h331.881c133.383 0 223.179-85.246 223.179-212.152 0-127.956-88.222-366.89-300.548-366.89h-145.11l-58.464-253.637c-3.151-13.477-15.055-22.931-28.883-22.931zM138.635 67.557l156.66 0.002 58.289 253.637c3.151 13.477 15.055 22.931 28.883 22.931h168.741c168.566 0 241.385 203.75 241.385 307.725 0 94.348-62.84 152.986-164.015 152.986h-331.881c-8.227 0-22.756-2.626-26.256-20.481zM421.151-160.173l-215.655-0.001c-8.752 0-16.978 3.851-22.58 10.503s-8.052 15.579-6.477 24.156l27.657 157.538c2.801 16.104 18.028 26.782 34.132 23.981s26.782-18.204 23.981-34.133l-21.53-122.88h156.663l55.839 256.088c2.976 13.653 15.054 23.281 28.882 23.281h168.741c168.566 0 241.385 203.75 241.385 307.725 0 67.742-28.532 114.479-84.546 138.81-14.879 6.477-21.88 23.981-15.229 38.858 6.477 15.054 23.981 21.88 38.858 15.404 77.369-33.608 120.079-102.226 120.079-193.072 0-127.956-88.222-366.89-300.548-366.89h-144.935l-55.839-256.088c-2.976-13.653-15.054-23.281-28.882-23.281h0.002zM459.833 450.9h-58.116c-8.752 0-16.978 3.851-22.756 10.678-5.601 6.652-8.052 15.579-6.477 24.156l38.859 215.653c2.451 14.003 14.704 24.331 29.057 24.331h93.998c35.534 0 63.892-11.378 81.921-32.733 19.606-23.281 26.081-56.364 19.080-98.549-14.178-100.299-66.69-143.535-175.567-143.535zM437.076 510.065l22.756 0.001c87.871 0 108.526 31.508 117.279 93.473 2.801 17.329 4.025 39.561-5.776 51.288-8.227 9.802-24.681 11.727-36.934 11.727h-69.317l-28.007-156.488z" />
<glyph unicode="&#xe609;" glyph-name="social-instagram" d="M511 860c138 0 155-1 209-3 53-2 90-11 123-24 34-13 62-30 90-58s45-56 58-90c13-33 22-70 24-123 2-54 3-71 3-209s-1-155-3-209c-2-53-11-90-24-123-13-34-30-62-58-90s-56-45-90-58c-33-13-70-22-123-24-54-2-71-3-209-3s-155 1-209 3c-53 2-90 11-123 24-34 13-62 30-90 58s-45 56-58 90c-13 33-22 70-24 123-2 54-3 71-3 209s1 155 3 209c2 53 11 90 24 123 13 34 30 62 58 90s56 45 90 58c33 13 70 22 123 24 54 2 71 3 209 3zM511 794c-144 0-161-1-217-3-52-2-81-12-100-19-49-20-82-53-102-102-7-19-17-48-19-100-2-56-3-73-3-217s1-161 3-217c2-52 12-81 19-100 20-49 53-82 102-102 19-7 48-17 100-19 56-2 73-3 217-3s161 1 217 3c52 2 81 12 100 19 49 20 82 53 102 102 7 19 17 48 19 100 2 56 3 73 3 217s-1 161-3 217c-2 52-12 81-19 100-20 49-53 82-102 102-19 7-48 17-100 19-56 2-73 3-217 3zM511 150c112 0 203 91 203 203s-91 203-203 203-203-91-203-203 91-203 203-203zM511 613c144 0 260-116 260-260s-116-260-260-260-260 116-260 260 116 260 260 260zM843 623c0-34-28-60-62-60s-60 26-60 60 26 62 60 62 62-28 62-62z" />
<glyph unicode="&#xe60a;" glyph-name="social-linkedin" d="M997.795-138.431h-208.026c-14.715 0-26.607 11.893-26.607 26.607v335.017c0 114.898-59.263 114.898-78.815 114.898-52.611 0-74.986-41.524-82.243-59.466-3.427-8.063-5.039-21.771-5.039-40.921v-349.732c0-14.715-11.893-26.607-26.607-26.607h-208.227c-7.055 0-13.908 2.822-18.947 7.861s-7.861 11.894-7.66 18.948c0 5.644 2.822 567.433 0 624.882-0.403 7.257 2.217 14.312 7.257 19.553s11.893 8.266 19.351 8.266h208.227c14.715 0 26.607-11.893 26.607-26.607v-15.723c35.074 31.244 85.669 57.046 161.058 57.046 166.702 0 266.28-115.301 266.28-308.409v-359.005c0-14.715-11.893-26.607-26.607-26.607h0.001zM816.377-85.216l155.012 0.004v332.397c0 162.268-77.606 255.193-213.065 255.193-90.507 0-134.45-45.153-162.066-86.477-3.225-10.885-13.506-18.948-25.6-18.948h-1.411c-9.676 0-18.545 5.241-23.181 13.707-3.628 6.652-4.435 14.313-2.016 21.367v55.836h-154.608c1.411-111.068 0-470.477-0.403-572.877h154.809v322.923c0 26.809 2.822 46.16 8.869 60.875 23.383 57.852 72.566 92.724 131.427 92.724 83.856 0 132.031-61.279 132.031-168.113v-308.611h0.203zM247.131-138.427h-208.227c-14.715 0-26.607 11.893-26.607 26.607v626.091c0 14.715 11.893 26.607 26.607 26.607h208.227c14.715 0 26.607-11.893 26.607-26.607v-626.091c0-14.715-11.893-26.607-26.607-26.607zM65.513-85.212h155.011v572.876h-155.011v-572.876zM143.118 573.132l-1.412 0.001c-82.041 0-141.707 56.844-141.707 135.055 0 78.009 60.674 134.854 144.529 134.854 82.444 0 141.305-55.231 142.918-134.249 0-78.816-60.674-135.66-144.328-135.66zM144.528 789.624c-54.627 0-91.313-32.857-91.313-81.639 0-47.975 36.283-81.638 88.491-81.638h1.411c54.425 0 91.111 32.857 91.111 81.639-1.008 49.386-36.283 81.638-89.701 81.638z" />
<glyph unicode="&#xe60b;" glyph-name="social-pintarest" d="M886.796 512.541c-3.822 186.292-156.11 321.28-362.52 321.28-22.331 0-45.065-1.609-67.798-4.828-165.369-22.934-292.313-142.031-316.053-296.134-16.899-109.844 18.508-241.816 135.393-271.591l16.899-4.225 9.858 14.284c3.42 4.828 33.396 49.088 28.566 85.702-2.414 18.307-13.479 29.572-20.118 36.211l-3.219 3.219c-18.307 28.769-25.951 77.453-18.307 118.292 18.508 100.589 102.399 173.617 208.621 181.664 7.444 0.604 14.888 0.805 22.131 0.805 110.045 0 184.48-65.584 189.712-166.978 4.828-97.974-24.544-187.297-76.85-233.166l-3.42-3.018c-12.273-10.864-21.929-19.515-42.047-22.532-5.231-0.805-10.462-1.207-15.291-1.207-40.236 0-62.164 26.556-62.969 52.709-1.006 29.372 10.662 61.562 23.136 95.762 15.29 42.046 31.183 85.702 25.349 130.767-6.237 46.673-48.685 83.087-96.768 83.087-12.272 0-24.745-2.414-36.816-6.84-87.311-33.194-100.187-147.464-68.199-239.604-7.645-36.413-17.503-72.424-27.964-110.447-31.183-114.471-63.571-232.965-39.028-371.778l5.432-30.78 28.769 11.87c27.964 11.668 43.052 37.419 55.524 58.744 2.414 4.024 4.828 8.048 7.041 11.871 40.839 64.176 63.773 140.825 81.477 215.261 44.058-33.194 89.122-43.857 153.298-36.816 177.44 19.314 269.58 209.428 266.16 378.418zM406.587 382.777l1.413 7.040-2.615 6.84c-27.36 72.223-21.124 160.138 36.615 182.066 6.237 2.414 12.674 3.621 18.911 3.621 23.538 0 44.259-17.301 47.076-39.431 4.426-32.993-8.853-68.803-22.733-107.026-13.479-37.017-27.562-75.24-26.153-114.471 1.609-49.088 41.846-101.193 113.062-101.193 7.444 0 15.088 0.604 22.934 1.811 34.804 5.231 54.116 22.331 67.997 34.804l3.219 2.817c63.371 55.727 99.382 160.541 93.749 273.402-6.84 136.399-115.678 224.918-265.556 213.652-129.358-9.858-231.356-99.182-254.090-222.505-9.858-53.111 0.401-115.275 25.349-154.506 3.018-4.627 6.438-8.248 9.656-11.467 2.213-2.414 5.834-5.834 6.035-7.444 0.805-6.84-3.42-20.923-10.662-34.804-72.827 30.982-93.347 128.956-80.874 209.628 20.118 131.973 129.961 234.172 273.402 254.089 20.519 2.817 41.039 4.226 60.956 4.226 177.842 0 309.212-114.471 312.229-272.194 3.018-146.861-73.632-311.426-221.096-327.721-10.059-1.006-19.514-1.608-28.365-1.608-53.514 0-82.281 18.508-116.884 52.91l-32.19 31.987-9.858-44.259c-18.911-84.093-40.839-172.008-84.294-240.409-2.817-4.426-5.634-9.254-8.451-14.284-1.006-1.811-2.012-3.62-3.219-5.23-8.047 107.429 18.508 204.8 44.461 299.555 10.662 39.231 21.928 80.069 29.976 120.104z" />
<glyph unicode="&#xe60c;" glyph-name="social-github" d="M158.6 341.4c-11.6 0-22.4 7.402-26 19.002-29.4 91.8-33.601 254 29.399 327.6-14 53.2-6.2 125.2 19.6 163.8 5.4 8 14.2 12.6 24 12.199 73.4-3.2 121.2-33.8 163.2-61.8 59.8 15.6 118 21 187 17.2 17-1 33.8-4.8 48.6-8.2 14-3.2 28.4-6.601 36.801-5.801 7.6 0.8 21.199 10 32.199 17.6 10.2 7 21 14.2 32.2 19.2 32 14 60.8 20.4 99.6 21.801 15 0.4 27.8-11.199 28.399-26.399s-11.2-27.8-26.4-28.2c-32.2-1.2-53.8-5.8-79.6-17.2-6.6-3-14.8-8.4-23.399-14.4-17-11.6-36.4-24.8-58-26.8-17.4-1.6-35.4 2.4-54.4 7-13.2 3-27 6.2-39.2 7-67.4 3.8-123.4-2-181.4-18.6-7.6-2.2-15.8-1-22.6 3.6l-6.8 4.6c-36.6 24.2-71.199 47.4-121.799 53.601-12.6-32.2-14.199-85.601-1.6-117.2 4.4-10.8 1.2-23.399-7.6-30.8-49.4-42-55.601-190.6-26.2-282.8 4.6-14.4-3.4-29.801-17.801-34.4-2.8-1.2-5.6-1.601-8.199-1.601zM366.599 71.402c-2 0-4.002 0.2-6.002 0.601-14.8 3.2-24 17.8-20.8 32.6l1.8 7.8c8.4 38 16.2 68.6 25.4 91.399-112.2 23.4-194 76.801-232.8 152.4-6.8 13.4-1.6 30 11.801 36.8s30 1.6 36.8-11.801c35-68.2 117.4-114.4 232.2-130.2 11-1.6 20-9.6 22.8-20.199 2.8-10.8-1.2-22.2-10.2-28.8-5.8-5.2-16.399-27-32.6-101.2l-1.8-8c-2.8-12.6-14-21.399-26.6-21.399zM316.196-128.798c-1.8 0-3.4 0.199-5.2 0.6-14.8 3-24.6 16.8-21.6 31.6 5 25.4 22.8 36 33.399 42.2 7.2 4.2 9.4 5.8 10.601 8.6 6.2 13.2 4.601 47.4 3.2 74.801-0.6 11.6-1.199 23.399-1.399 34.8-63.4-11-132.2-14.4-168.601 45.8-7.2 12-11.8 24.2-16 35.2-4.8 12.4-8.8 23.2-15.399 31.2-9.6 11.6-7.8 28.8 3.8 38.399s28.8 8 38.399-3.8c12.2-15 18.601-31.8 24.2-46.6 3.6-9.6 7-18.6 11.6-26.199 19.6-32.4 62.399-30.4 144.8-13.801 8.6 1.8 17.399-0.8 23.8-6.6 6.4-6 9.601-14.6 8.601-23.199-2-17.4-0.8-40.2 0.2-62.2 2-38.6 3.8-75-8.4-100.8-8.8-18.6-23-27-32.4-32.4-2.6-1.6-6.6-3.8-7.399-4.8-1.8-13.4-13.2-22.801-26.2-22.801zM713.795-123.599c-9 0-17.6 4.397-23 12.398-2.2 3.6-5.4 5.8-11 9.6-8.8 6.2-20.8 14.601-29.8 32.001-16.2 31.8-13.601 78-11.001 126.8 1.6 30 3.199 61-0.001 85.4-2.8 20.6-10 29.8-20 42.6-6.4 8.4-13.801 17.801-19.601 30.201-3.8 8.2-3.2 17.601 1.2 25.4 4.6 7.8 12.6 12.8 21.6 13.399 102.6 7.6 183.6 56 222.6 132.6 6.8 13.4 23.2 18.801 36.8 12.001 13.4-6.8 18.801-23.2 12.001-36.8-41.6-82.2-121-137.601-221.4-156.601 9-13.2 17.8-30 21.2-55.8 4-29.4 2.2-63 0.4-95.4-2-37.6-4.2-80.199 5.2-98.999 2.4-4.8 5.4-7 12.2-11.8 7.4-5 17.4-12 25.601-24.6s4.601-29.6-7.999-37.8c-4.6-3.2-9.8-4.601-15-4.601zM869.195 346.998c-2.4 0-5.002 0.399-7.402 0.999-14.6 4.2-23 19.2-18.8 33.8 30.2 106.2 9.601 244.2-43.199 289.2-8.6 7.4-11.8 19.2-8 29.8 12.8 36.6 4.2 91.6-10.399 124.8-6 13.8 0.2 30 14 36s30-0.2 36-14c16.8-38 27.8-97.8 16.8-147.6 65.2-72 78-225.6 47.4-333.199-3.6-12-14.399-19.8-26.399-19.8zM623.594-160.403c-5 0-10.2 1.4-14.8 4.4-5 3.2-20 12.8-47.8 56-12.6 19.6-21.8 117.199-27.399 290.399-0.4 15 11.399 27.8 26.399 28.2s27.8-11.399 28.2-26.399c3.6-113.4 12-242 19.6-264 20.4-31.6 30-38 30.4-38.2 12.6-8.2 16.399-25 8.199-37.8-5-8.2-13.8-12.601-22.8-12.601zM416.193-160.403c-9 0-17.8 4.4-23 12.601-8.2 12.6-4.4 29.6 8.199 37.8 0.4 0.2 10 6.601 30.4 38.2 7.6 21.8 15.8 150.6 19.6 264 0.4 15 13.2 27 28.2 26.4 15-0.4 27-13.2 26.4-28.2-5.6-173.2-14.8-271-27.399-290.4-27.8-43-42.8-52.8-47.8-56-4.4-3-9.601-4.4-14.601-4.4z" />
<glyph unicode="&#xe60d;" glyph-name="social-google" d="M706.879 504.165c-69.714 75.135-127.739 86.795-183.654 87.335-0.743 0.007-1.486 0.011-2.228 0.011-125.982 0-245.232-103.276-245.232-247.417 0-151.023 136.123-238.817 244.679-238.817 0.224 0 0.448 0 0.672 0.001 60.135 0.202 132.93 10.802 196.451 103.212h-245.793v254.442l523.258-1.525c4.553-25.916 13.79-91.397 13.79-124.936 0-289.654-194.214-495.46-493.122-495.46-283.735 0-514.365 225.625-514.365 507.655s230.63 507.656 514.365 507.656c139.592 0 288.287-54.881 382.359-179.89zM520.251 411.172v-153.974h262.493c-12.139-65.553-80.417-195.135-262.493-195.135-159.316 0-286.77 129.582-286.77 285.080s130.488 286.604 286.77 286.604c91.038 0 151.73-39.637 185.111-71.651l125.935 118.91c-80.416 74.7-185.11 120.436-311.046 120.436-256.424 0-464.295-201.233-464.295-454.299 0-251.541 207.871-452.775 464.295-452.775 270.080 0 444.569 184.465 444.569 442.104 0 28.965-1.518 51.833-6.069 74.7z" />
<glyph unicode="&#xe60e;" glyph-name="social-reddit" d="M664.6 134.2c-9.6 2.6-21.198-0.801-35.398-10.201l-1.4-1.2c-23-23-64.8-34.6-124.2-34.6s-101.2 11.6-124.2 34.6c-9.6 9.6-29 9.6-38.6 0-10-10-10-28.6 0.6-39.199 42.6-35.6 96.199-52.199 168.399-52.199 75 0 135 18.8 169 52.8 4.8 4.8 7.6 11.8 7.6 19.2 0 6.8-2.4 13.399-6.4 17.999-4.6 8.4-10.8 11.601-15.399 12.801zM438.2 284.601c0 44.2-37.2 84.4-78.2 84.4s-78.2-40.2-78.2-84.4c0-42.4 35.8-78.2 78.2-78.2s78.2 35.8 78.2 78.2zM659.601 362.801c-42.4 0-78.2-35.8-78.2-78.2s35.8-78.2 78.2-78.2 78.2 35.8 78.2 78.2-35.8 78.2-78.2 78.2zM896.601 487.601c-25.6 0-55.6-11.6-75.8-28.6-68 43.2-159.8 70-267.2 77.8l50 167 140.2-33.6c4.2-51.8 50.4-95.6 102.801-95.6 55 0 103.2 48.2 103.2 103.2s-48.2 103.2-103.2 103.2c-37.8 0-76-23-92.8-54.6l-166.8 41.8-2.4 0.2c-11.4 0-27.2-10-28.2-26.6l-66-204.2c-105.2-1.2-208.601-29.2-292.4-79.4-25 15.6-49.6 23.199-75 23.199-67.2 0-122-54.6-122-122 0-42 20.2-79.4 56.2-99.4v-25.4c0-87.2 47-163.2 135.2-220 83-57.4 195.8-89 317.6-89s237.8 31.6 320.8 89c87.2 60.4 138.4 138.601 138.4 220.001v26c26 22.8 52.8 63.6 52.8 105.199-0.2 67.2-58 121.8-125.401 121.8zM962.001 359.4c0-11.4-6.401-27.601-17.001-39.601-12.6 33.4-36.399 65-74.6 99.4 7.6 3.2 16 5.4 26.4 5.4 38.4 0.2 65.2-26.8 65.2-65.2zM905.8 234.601c0-78-59-137.201-107.8-172.801-84.8-52.2-184.399-79.8-288.199-79.8-107.2 0-212.2 29-288 79.6-74.8 49.8-114.2 109.6-114.2 173s39.4 123.2 114.2 173c77 51.2 177 79.601 281.8 79.601 107.2 0 212.2-29 288-79.6 74.6-49.8 114.199-109.6 114.199-173zM150.399 421.6c-32.2-25.6-59.6-59.801-78.8-98.601-7.8 12.6-14 25-14 36.4 0 38.4 26.8 65.2 65.2 65.2 13 0.2 21 0 27.6-3zM800.2 677.599c0 26.2 20.4 46.601 46.601 46.601s46.601-20.4 46.601-46.601-20.4-46.601-46.601-46.601c-26.2 0.2-46.601 20.601-46.601 46.601z" />
<glyph unicode="&#xe60f;" glyph-name="social-skype" d="M977.768 289.546c3.244 22.71 4.868 45.827 4.868 68.74 0 261.779-212.911 474.894-474.894 474.894-21.899 0-44.204-1.622-65.901-4.461-42.988 23.116-91.653 35.282-140.725 35.282-163.84 0-297.061-133.221-297.061-296.858 0-48.26 11.761-95.911 34.269-138.291-3.447-23.319-5.272-47.043-5.272-70.565 0-261.779 212.911-474.894 474.894-474.894 18.452 0 37.107 1.014 55.357 3.244 47.651-30.416 102.807-46.638 159.785-46.638 163.84 0 296.858 133.221 296.858 296.858 0 53.937-14.6 106.657-42.177 152.688zM884.898-24.954c-43.19-43.19-100.777-67.118-162.015-67.118-45.218 0-88.813 13.18-126.326 38.121l-16.83 11.152-20.074-2.636c-17.033-2.23-34.472-3.244-51.708-3.244-54.951 0-108.28 10.747-158.365 32.038-48.463 20.481-92.059 49.883-129.368 87.192s-66.712 80.905-87.192 129.368c-21.291 50.085-32.038 103.414-32.038 158.365 0 21.494 1.622 43.19 5.069 64.482l2.839 18.25-8.922 16.222c-18.25 33.457-27.983 71.376-27.983 109.903 0 61.237 23.724 118.622 67.117 162.015 43.19 43.19 100.778 67.118 162.016 67.118 39.135 0 77.865-10.139 111.729-29.198l16.222-9.125 18.452 2.636c19.872 3.042 40.353 4.461 60.427 4.461 54.951 0 108.28-10.747 158.365-32.038 48.463-20.481 92.059-49.883 129.368-87.192s66.712-80.905 87.192-129.368c21.291-50.085 32.038-103.414 32.038-158.365 0-21.088-1.622-42.379-4.867-63.265l-3.042-19.872 10.747-17.236c22.508-36.296 34.471-78.067 34.471-120.853-0.203-61.034-24.13-118.622-67.32-161.812v-0.001zM578.714 402.49l-96.114 21.694c-52.315 11.761-78.677 29.808-78.677 54.546 0 17.641 7.3 32.038 21.697 42.988s34.878 16.425 61.035 16.425c30.821 0 55.965-6.489 75.025-19.669 5.678-3.65 17.844-15.613 36.499-35.688 12.166-12.977 25.347-19.669 39.338-19.669 14.398 0 26.97 4.055 37.107 12.166 10.341 8.111 15.411 19.264 15.411 33.256 0 32.241-21.291 60.224-63.873 83.948-40.149 22.508-84.15 33.66-132.006 33.66-55.154 0-100.981-11.761-137.48-35.080-42.582-27.577-63.873-67.32-63.873-119.027 0-70.97 41.163-117 123.488-137.885l129.774-32.849c32.645-8.314 49.070-25.955 49.070-52.519 0-17.844-7.908-32.849-23.725-45.421-17.236-13.991-40.149-21.088-68.537-21.088-33.052 0-59.615 7.908-79.69 23.725-4.664 3.244-17.438 17.642-38.324 43.394-12.977 15.816-27.779 23.725-44.001 23.725-13.991 0-25.549-4.461-34.674-13.383s-13.586-20.277-13.586-34.269c0-31.835 17.033-59.818 51.1-83.948 39.541-28.996 92.87-43.394 159.379-43.394 67.118 0 118.825 15.208 155.324 45.624 34.471 27.983 51.707 65.901 51.707 113.553 0.608 76.648-43.393 125.11-131.396 145.186z" />
<glyph unicode="&#xe610;" glyph-name="social-behance" d="M376.743 449.159c15.924 9.676 23.987 27.214 23.987 51.806 0 27.213-10.683 45.556-31.849 54.425-17.739 6.047-40.719 9.071-68.133 9.071h-152.592v-129.613h167.106c24.995 0 45.757 4.838 61.48 14.312zM360.215 500.965c0-9.272-1.611-15.319-4.635-17.134-9.272-5.644-22.778-8.466-40.518-8.466h-126.387v48.58h112.076c22.375 0 40.517-2.217 53.819-6.45 2.016-1.008 5.644-2.62 5.644-16.529v-0.001zM374.932 333.256c-13.707 6.249-33.261 9.676-57.853 9.877h-168.92v-156.019h166.904c24.995 0 44.75 3.427 58.658 10.279 25.6 12.699 38.501 37.291 38.501 72.97 0.202 30.236-12.296 51.402-37.291 62.892v0.001zM188.676 302.616h128.402c24.592-0.202 36.283-4.031 41.121-6.249 7.257-3.427 13.707-7.86 13.707-26.002 0-28.825-10.885-34.066-16.126-36.688-3.83-1.814-15.118-6.048-40.718-6.048h-126.387v74.986zM848.229 411.266c-17.94 15.32-40.313 23.182-66.72 23.182-28.624 0-51.402-8.265-67.326-24.794-15.924-16.328-26.003-38.702-29.833-66.52l-0.202-1.814h194.52l-0.202 1.613c-2.217 30.035-12.296 53.014-30.237 68.334zM743.612 382.038c3.427 3.427 12.698 12.095 37.895 12.095 15.723 0 28.422-4.031 38.702-12.095h-76.598zM1026.62 359.865c-6.047 38.904-19.552 73.777-40.111 103.812-18.948 28.22-42.532 50.394-70.551 66.519v160.857h-268.498v-162.469c-16.328-9.877-31.244-21.569-45.153-35.477-31.648-31.849-52.409-72.769-62.69-121.952-7.458 10.885-16.328 20.762-26.205 29.43 1.411 1.613 2.419 2.822 3.427 4.031 23.584 28.422 35.477 65.108 35.477 109.253 0 42.129-11.288 79.219-33.663 110.261-36.485 49.789-96.555 75.792-178.395 77.203h-343.887v-651.087h323.326c31.446 0 61.481 2.822 88.894 8.668 30.639 6.45 57.649 18.545 80.428 36.082 20.157 15.118 36.889 33.865 50.192 55.836 5.241 8.265 9.877 16.932 13.707 26.003 13.304-32.454 32.654-59.263 58.456-80.024 49.991-40.315 108.447-60.675 173.757-60.675 79.42 0 142.715 24.995 188.068 74.381 30.035 31.849 47.169 64.906 51.2 98.368l2.62 22.576h2.822l0.605 38.299c1.008 37.493-0.403 67.932-3.83 90.105h0.003zM442.46 398.166l-3.226-1.611 3.427-1.209c28.825-10.482 50.797-27.214 65.512-49.992s22.173-50.797 22.173-83.049c0-33.461-8.466-63.899-25.397-90.709-10.683-17.739-24.188-32.655-40.112-44.75-17.94-13.707-39.71-23.383-64.101-28.422-24.794-5.241-51.805-7.861-80.63-7.861h-283.213v570.255h301.757c69.14-1.008 118.728-21.367 147.351-60.473 17.335-23.987 26.003-53.015 26.003-86.678 0-34.469-8.869-62.487-26.205-83.451-9.877-11.691-24.391-22.375-43.339-32.050zM781.509 563.257c-10.079 0-19.957-0.403-29.431-1.411h-64.101v88.693h187.666v-88.693h-64.101c-9.877 0.806-19.956 1.411-30.035 1.411h0.001zM681.525 269.764c1.814-42.935 16.935-73.374 45.155-90.71 17.134-10.683 37.895-16.126 61.883-16.126 25.6 0 46.563 6.652 62.487 19.754 8.668 7.055 16.328 16.731 22.778 28.824h110.463c-3.427-24.189-16.932-48.983-40.517-73.978-37.493-40.718-90.709-61.278-158.438-61.278-55.836 0-105.827 17.335-148.359 51.805-42.532 34.268-64.102 91.111-64.102 168.517 0 72.567 19.553 129.209 57.852 167.912 32.655 32.857 74.181 52.007 123.565 57.047h55.030c25.6-2.62 49.386-8.668 70.954-18.343 29.227-13.102 53.618-34.065 72.566-62.286 17.134-24.794 28.422-54.224 33.461-87.080 3.024-19.351 4.233-46.967 3.628-82.443h-308.409v-1.613h0.002zM825.653 214.129c-8.869-7.257-20.964-10.683-37.090-10.683-16.529 0-29.631 3.225-40.314 9.877-5.241 3.225-11.691 8.063-16.933 17.738h107.036c-4.031-7.66-8.266-13.304-12.699-16.932z" />
<glyph unicode="&#xe611;" glyph-name="social-foursqare" d="M145 788.2c0.8 1.8 1.598 3.799 2.197 5.599 14.4 46.2 45.801 69.8 94.4 69.8 115.2 0.2 230.4 0 345.601 0h197.8c14.4 0 28.601-1.2 42.4-5.2 29.2-8.4 46.4-30.2 50-60.2 4.2-34.2-4.2-66.8-11-99.6-30.2-146.6-60.8-293.199-91.2-439.999-3.4-16-7.4-31.8-15-46.399-17.4-33.4-47.4-43.801-82.601-44.001-50.6-0.2-101.199-0.2-151.799 0-9.2 0-16.2-2.6-22.2-9.6-35.8-41.8-71.6-83.399-107.6-125.199-50.2-58.4-100-117.2-150.8-175.2-15.6-17.8-37-22-59.8-16.8-21 4.8-33 19.2-38.4 39.4-0.6 2-1.399 3.8-1.999 5.8v901.6zM231.198-60.201c1.4 2.6 2.004 4.202 3.004 5.402 32.2 40.4 64.4 80.601 96.801 121.001 36.6 45.6 73.199 91.199 109.399 136.999 15.6 19.6 34.199 29.8 60.199 29.2 57.6-1.2 115.399-0.4 172.999-0.2 27.8 0 39.399 10 44.999 37.2 8.6 42.6 17.6 85.399 26 127.999 5.6 28.4-8 44.601-36.6 44.601-62.2 0-124.4 1.8-186.4-0.601-51.8-1.8-77 21-74 74.6 2.2 40.8 21.4 61.6 62.4 61.8h237.2c24.6 0 36.399 9.4 41.399 33.4 9 42.6 17.8 85.199 26.6 127.999 6.2 30.6-6.8 46.6-37.8 46.6h-508.4c-30.4 0-41.4-11-41.4-41.8v-789.2c0-4-1.2-8.6 3.6-15z" />
<glyph unicode="&#xe612;" glyph-name="social-soundcloud" d="M1021.8 286.2c0-88-71.399-159.399-159.399-159.399h-63.8c-17.6 0-31.8 14.2-31.8 31.8s14.2 31.8 31.8 31.8h63.8c52.8 0 95.6 42.8 95.6 95.6s-42.8 95.6-95.6 95.6h-0.4c-41.4 0-76.801 26.4-90.001 63.2 0 0.2-0.4 0.4-0.4 0.801-24.8 69.8-89 121-166 126.6-16.6-1-29.8-14.8-29.8-31.6v-381.8c0-17.6-14.2-31.8-31.8-31.8s-31.8 14.2-31.8 31.8v381.8c0 52.4 42.2 94.801 94.4 95.4 104-6 191.2-74.2 224.8-168.2 0.2-0.2 0.4-0.4 0.601-0.4 4.2-12.8 16.2-22 30.2-22h0.4c1.8 0 3.6-0.2 5.199-0.2h1c85-3.4 153-73.2 153-159v0zM416.4 126.801c-17.6 0-31.8 14.201-31.8 31.801v350.6c0 17.6 14.2 31.8 31.8 31.8s31.8-14.2 31.8-31.8v-350.6c0-17.4-14.2-31.801-31.8-31.801v0zM288.801 126.802c-17.6 0-31.8 14.201-31.8 31.801v366.6c0 17.6 14.2 31.8 31.8 31.8s31.8-14.2 31.8-31.8v-366.4c0.2-17.6-14.2-32-31.8-32v0-0.001zM161.4 126.803c-17.6 0-31.8 14.201-31.8 31.801v255c0 17.6 14.2 31.8 31.8 31.8s31.8-14.2 31.8-31.8v-255c0-17.4-14.2-31.801-31.8-31.801v0zM34 190.604c-17.6 0-31.8 14.2-31.8 31.8v127.4c0 17.6 14.2 31.8 31.8 31.8s31.8-14.2 31.8-31.8v-127.4c0-17.6-14.2-31.8-31.8-31.8v0zM671.2 190.604c17.6 0 31.8-14.2 31.8-31.8s-14.2-31.8-31.8-31.8-31.8 14.2-31.8 31.8 14.2 31.8 31.8 31.8v0z" />
<glyph unicode="&#xe613;" glyph-name="social-spotify" d="M417.534 553.254c154.872-4.207 274.084-22.042 384.678-78.14 15.627-8.014 34.461-19.434 40.671-33.859 5.81-13.424 2.403-41.473-7.414-48.484-13.824-10.018-41.673-14.825-56.099-7.412-113.8 58.904-235.013 77.737-360.634 72.728-50.288-2.004-100.777-11.42-150.265-21.037-32.257-6.411-58.904-2.805-68.32 30.454-10.218 35.262 14.826 53.294 44.879 58.904 67.519 12.020 135.839 21.236 172.503 26.847zM440.576 400.582c110.194-6.612 214.176-29.251 309.143-83.347 15.627-8.815 32.056-30.254 33.658-47.084 2.605-30.053-31.856-40.27-67.519-21.236-123.217 65.515-253.646 80.141-389.685 57.1-15.227-2.605-31.255-11.821-45.079-9.017-17.631 3.807-33.459 16.629-50.088 25.445 10.418 15.828 18.232 42.476 31.856 45.882 58.102 14.425 118.208 22.039 177.712 32.257zM420.141 247.513c115.002-1.803 199.954-19.434 277.891-63.512 20.236-11.42 44.077-26.646 24.443-51.289-7.814-9.817-39.671-11.019-53.695-3.406-100.577 53.694-207.164 60.307-316.957 46.482-18.232-2.204-36.465-10.418-53.895-8.615-16.629 1.803-32.257 13.023-48.285 20.034 11.019 13.424 20.235 36.063 33.658 38.867 53.294 11.821 107.99 17.231 136.841 21.438zM1024 351.896c0-141.248-50.089-262.062-150.064-362.036s-220.588-150.063-362.036-150.063c-141.248 0-262.061 50.088-362.035 150.063s-150.063 220.588-150.063 362.036c0 141.248 50.088 262.062 150.063 362.036 100.176 99.976 220.788 150.063 362.036 150.063s262.062-50.088 362.036-150.063c99.976-99.976 150.063-220.788 150.063-362.036zM959.891 351.896c0 124.018-43.675 229.603-131.027 316.955-87.153 87.355-192.939 131.030-316.957 131.030-123.818 0-229.604-43.677-316.957-131.029s-131.029-192.938-131.029-316.956 43.677-230.004 131.029-317.959c87.353-87.955 192.938-132.032 316.956-132.032s229.604 44.077 316.956 132.032c87.353 87.955 131.029 193.941 131.029 317.959z" />
<glyph unicode="&#xe614;" glyph-name="social-stumbleupon" d="M777.2-36.6c-129.8 0-236.401 105.601-237.401 235.4v134c0 7.8 4 15 10.6 19.2s14.8 4.8 22 1.399l57.8-27 89.4 26.8c7 2 14.4 0.8 20.2-3.601s9.2-11.2 9.2-18.4v-134.8c0-15.4 12.6-28 28-28s28 12.6 28 28v137.4c0 6 2.4 11.8 6.601 16.2 4.2 4.2 10 6.601 16.2 6.601v0h164.2c12.6 0 22.8-10.2 22.8-22.8v-133.2c-0.2-130.8-106.8-237.2-237.6-237.2zM585.398 296.802v-98.002c1-104.6 87-189.8 191.8-189.8 105.8 0 191.8 86 191.8 191.8v110.2h-118.6v-114.6c0-40.6-33-73.6-73.6-73.6s-73.8 33-73.8 73.6v104.2l-68.4-20.4c-5.4-1.6-11.2-1.199-16.2 1.201zM246.398-36.601c-131 0-237.6 106.4-237.6 237.4v133c0 12.6 10.2 22.8 22.8 22.8h164.2c12.6 0 22.8-10.2 22.8-22.8v-131.4c0-15.4 12.6-28 28-28s28 12.6 28 28v310c4.6 129.2 108.6 229.8 237 229.8 129 0 233-101.2 237-230.2v-68.6c0-10.2-6.6-19-16.399-22l-97.8-29.2c-5.4-1.6-11.2-1.199-16.2 1.201l-65.6 30.6c-8 3.8-13.2 11.8-13.2 20.8v59c0 15.4-12.6 28-28 28s-28-12.6-28-28l-0.2-306.2c-1.4-129.2-107.801-234.2-236.801-234.2zM54.599 310.999l-0.001-110.198c0-105.8 86-191.8 191.8-191.8 104.2 0 190 84.8 191.4 189l0.2 305.8c0 40.6 33 73.6 73.6 73.6s73.6-33 73.6-73.6v-44.4l44.6-20.8 73.2 21.8v50.8c-3.2 103.6-87.2 185.199-191.2 185.199-103.6 0-187.6-81.2-191.199-184.8v-309.2c0-40.6-33-73.6-73.6-73.6s-73.6 33-73.6 73.6v108.6h-118.8z" />
<glyph unicode="&#xe615;" glyph-name="shoe" d="M1024 160h-1024v147.328l207.040 108.864 29.792-56.64-172.832-90.88v-44.672h896v384h-296.928l-24.736-74.112-60.672 20.224 39.264 117.888h407.072zM274.746 530.77l128.002-128.002-45.254-45.254-128.002 128.002 45.254 45.254zM434.742 562.77l128.002-128.002-45.254-45.254-128.002 128.002 45.254 45.254zM0 96h1024v-64h-1024v64z" />
<glyph unicode="&#xe616;" glyph-name="play" d="M512-160c-282.304 0-512 229.696-512 512s229.696 512 512 512 512-229.696 512-512-229.696-512-512-512zM512 800c-247.040 0-448-200.96-448-448s200.96-448 448-448 448 200.96 448 448-200.96 448-448 448zM384 134.24v281.76h64v-166.24l161.024 100.608-240.576 133.664 31.104 55.936 335.424-186.336z" />
<glyph unicode="&#xe617;" glyph-name="pause" d="M512-160c-282.304 0-512 229.696-512 512s229.696 512 512 512 512-229.696 512-512-229.696-512-512-512zM512 800c-247.040 0-448-200.96-448-448s200.96-448 448-448 448 200.96 448 448-200.96 448-448 448zM416 512h64v-320h-64v320zM544 512h64v-320h-64v320z" />
<glyph unicode="&#xe618;" glyph-name="scisor" d="M288-160c-105.888 0-192 86.112-192 192s86.112 192 192 192 192-86.112 192-192-86.112-192-192-192zM288 160c-70.592 0-128-57.408-128-128s57.408-128 128-128 128 57.408 128 128-57.408 128-128 128zM736-160c-105.888 0-192 86.112-192 192s86.112 192 192 192 192-86.112 192-192-86.112-192-192-192zM736 160c-70.592 0-128-57.408-128-128s57.408-128 128-128 128 57.408 128 128-57.408 128-128 128zM282.984 849.218l223.988-351.486-53.972-34.394-223.988 351.488 53.972 34.394zM740.924 848.97l54.246-33.966-220.058-351.462-54.246 33.966 220.058 351.462zM512 224c-52.928 0-96 43.072-96 96s43.072 96 96 96 96-43.072 96-96c0-52.928-43.072-96-96-96zM512 352c-17.632 0-32-14.368-32-32s14.368-32 32-32 32 14.336 32 32-14.368 32-32 32z" />
<glyph unicode="&#xe623;" glyph-name="rugby-ball" d="M326.976-160c-96.128 0-178.048 31.136-236.928 90.016-159.296 159.264-99.584 478.144 133.088 710.848 139.712 139.712 316.864 223.136 473.888 223.136 96.128 0 178.048-31.136 236.96-90.048 159.264-159.264 99.552-478.144-133.088-710.848-139.776-139.712-316.928-223.104-473.92-223.104zM697.024 800c-140.416 0-300.64-76.416-428.64-204.384-207.712-207.744-267.424-486.016-133.088-620.352 46.624-46.624 112.896-71.264 191.68-71.264 140.416 0 300.672 76.384 428.672 204.352 207.68 207.744 267.392 486.016 133.088 620.352-46.656 46.624-112.928 71.296-191.712 71.296zM715.654 600.902l45.254-45.254-452.568-452.568-45.254 45.254 452.568 452.568zM287.968 288h256.064v-64h-256.064v64zM384 384h64v-256h-64v256zM479.968 480h256.064v-64h-256.064v64zM576 576h64v-256h-64v256z" />
<glyph unicode="&#xe62d;" glyph-name="zandu-balm" d="M512-160c-176.448 0-320 143.552-320 320s143.552 320 320 320 320-143.552 320-320-143.552-320-320-320zM512 416c-141.152 0-256-114.848-256-256s114.848-256 256-256 256 114.848 256 256-114.848 256-256 256zM384 160h-64c0 105.888 86.112 192 192 192v-64c-70.592 0-128-57.408-128-128zM608 544h-64v64h-64v-64h-64v128h192zM480 768h64v-128h-64v128zM544 768h-64c0 52.928 43.072 96 96 96v-64c-17.664 0-32-14.336-32-32z" />
<glyph unicode="&#xe62e;" glyph-name="up-direction" d="M288 736h64v-608h-64v608zM544.010 736.014l0.458-416.192-64-0.070-0.458 416.192 64 0.070zM544 736h-64c0 35.296-28.704 64-64 64s-64-28.704-64-64h-64c0 70.592 57.408 128 128 128s128-57.408 128-128zM828.736-160h-556.736l-144 192v237.248l73.376 73.376 45.248-45.248-54.624-54.624v-189.408l112-149.344h469.12l55.712 395.808-329.184 134.464 24.224 59.264 375.296-153.344z" />
<glyph unicode="&#xe636;" glyph-name="tele" d="M1024-160h-1024v768h1024v-768zM64-96h896v640h-896v-640zM768-32h-640v512h640v-512zM192 32h512v384h-512v-384zM832 160h64v-64h-64v64zM832 32h64v-64h-64v64zM512 633.12l-273.024 171.808 34.048 54.144 238.976-150.336 238.976 150.336 34.048-54.144z" />
<glyph unicode="&#xe646;" glyph-name="choco-bar" d="M538.976-73.6l-452.224 452.864 391.488 391.424c60.16 60.192 140.096 93.344 225.088 93.344 85.472 0 165.984-33.44 226.656-94.112 60.48-60.448 93.856-140.704 94.016-225.984 0.128-85.344-33.056-165.632-93.504-226.048l-391.52-391.488zM177.248 379.232l361.792-362.304 346.24 346.208c48.32 48.32 74.848 112.48 74.752 180.704-0.096 68.192-26.848 132.416-75.264 180.8-48.64 48.608-113.056 75.36-181.408 75.36-67.872 0-131.744-26.496-179.84-74.592l-346.272-346.176zM335.584 356.544l-45.248 45.248 278.4 278.368c36 36.032 83.808 55.872 134.592 55.872 51.232 0 99.584-20.096 136.128-56.64l-45.216-45.28c-48.64 48.576-132.096 48.96-180.256 0.8l-278.4-278.368zM96-160c-24.576 0-49.152 9.344-67.872 28.064-18.144 18.144-28.128 42.304-28.128 67.968s10.016 49.76 28.16 67.872l175.456 175.488 45.248-45.248-175.488-175.52c-6.048-6.016-9.376-14.048-9.376-22.624 0-8.608 3.328-16.64 9.376-22.688 12.48-12.48 32.768-12.48 45.248 0l175.488 175.552 45.248-45.248-175.488-175.552c-18.688-18.72-43.296-28.064-67.872-28.064z" />
<glyph unicode="&#xe648;" glyph-name="sand-watch" d="M512 320c-158.816 0-288 129.184-288 288h64c0-123.488 100.512-224 224-224s224 100.512 224 224h64c0-158.816-129.184-288-288-288zM864 672h-704v192h704v-192zM224 736h576v64h-576v-64zM800 96h-64c0 123.488-100.512 224-224 224s-224-100.512-224-224h-64c0 158.816 129.184 288 288 288s288-129.184 288-288zM416 96h-64c0 88.224 71.776 160 160 160v-64c-52.928 0-96-43.072-96-96zM512 448c-88.224 0-160 71.776-160 160h64c0-52.928 43.072-96 96-96v-64zM864-160h-704v192h704v-192zM224-96h576v64h-576v-64z" />
<glyph unicode="&#xe64d;" glyph-name="fork" d="M352-160c-52.928 0-96 43.072-96 96v352h64v-352c0-17.632 14.368-32 32-32s32 14.368 32 32v768c0 52.928-43.072 96-96 96s-96-43.072-96-96v-416h-64v416c0 88.224 71.776 160 160 160s160-71.776 160-160v-768c0-52.928-43.072-96-96-96zM704-160c-52.928 0-96 43.072-96 96v498.752l-96 96v333.248h64v-306.752l96-96v-525.248c0-17.632 14.336-32 32-32s32 14.368 32 32v525.248l96 96v306.752h64v-333.248l-96-96v-498.752c0-52.928-43.072-96-96-96zM735.58 864.044l0.448-320-64-0.090-0.448 320 64 0.090z" />
<glyph unicode="&#xe650;" glyph-name="juicer" d="M742.336-160h-588.672l70.88 389.728 62.912-11.456-57.12-314.272h435.328l-57.12 314.272 62.912 11.456zM343.722 205.806l63.302-9.434-29.966-201.080-63.302 9.434 29.966 201.080zM672 288h-448v246.304l-91.776 137.696h539.776v-384zM288 352h320v256h-356.224l36.224-54.304v-201.696zM576 736h-64c0 35.296-28.704 64-64 64s-64-28.704-64-64h-64c0 70.592 57.408 128 128 128s128-57.408 128-128zM768 288h-33.216v64h33.216c17.664 0 32 14.368 32 32v128c0 17.632-14.336 32-32 32h-33.216v64h33.216c52.928 0 96-43.072 96-96v-128.8c-0.448-52.576-43.328-95.2-96-95.2z" />
<glyph unicode="&#xe655;" glyph-name="desktop" d="M1024 64h-416.512v64h352.512v576h-896v-576h354.432v-64h-418.432v704h1024zM896 192h-768v448h768v-448zM192 256h640v320h-640v-320zM480 130.368h64v-66.368h-64v66.368zM318.816 0h386.368v-64h-386.368v64z" />
<glyph unicode="&#xe656;" glyph-name="srew" d="M832 608h-640c-70.592 0-128 57.408-128 128s57.408 128 128 128h640c70.592 0 128-57.408 128-128s-57.408-128-128-128zM192 800c-35.296 0-64-28.704-64-64s28.704-64 64-64h640c35.296 0 64 28.704 64 64s-28.704 64-64 64h-640zM544-160.128l-64 0.256 0.576 146.208-78.944 77.12 130.496 127.872-128.768 127.296 76.64 78.4v146.976h64v-173.024l-50.368-51.584 129.728-128.224-130.24-127.648 51.552-50.336z" />
<glyph unicode="&#xe668;" glyph-name="alarm" d="M512-160c-229.376 0-416 186.624-416 416 0 168.352 100.416 319.104 255.808 384.064l24.672-59.040c-131.52-54.976-216.48-182.56-216.48-325.024 0-194.080 157.92-352 352-352 181.76 0 335.84 141.728 350.816 322.656l63.808-5.28c-17.728-213.856-199.84-381.376-414.624-381.376zM862.496 285.408c-10.688 131.328-93.056 244.608-215.008 295.648l24.672 59.040c144.128-60.288 241.472-194.208 254.112-349.472l-63.776-5.216zM608 576h-64v160h96v64h-256v-64h96v-160h-64v96h-96v192h384v-192h-96zM905.362 726.626l45.254-45.254-96.008-96.008-45.254 45.254 96.006 96.006zM905.366 771.888l90.51-90.51-45.254-45.254-90.51 90.51 45.254 45.254zM768 224h-288v288h64v-224h224z" />
<glyph unicode="&#xe669;" glyph-name="timer" d="M716.032 114.208l-236.032 229.088v333.504h64v-306.464l216.608-210.176zM514.496-154.88c-132.48 0-264.096 50.976-362.816 149.664l45.248 45.248c150.080-150.048 387.2-174.048 563.808-57.056l35.36-53.344c-85.728-56.768-183.904-84.512-281.6-84.512zM940.832 74.432l-53.376 35.328c117.056 176.64 93.088 413.728-56.992 563.84l45.248 45.248c171.552-171.52 198.912-442.56 65.12-644.416zM1025.664 356.384h-64c0 212.096-152.128 396.896-361.76 439.456l12.736 62.72c239.328-48.576 413.024-259.776 413.024-502.176zM510.304-155.2c-282.304 0-512 229.696-512 512 0 242.56 172.288 453.536 409.632 501.728l12.704-62.72c-207.616-42.144-358.336-226.752-358.336-439.008 0-247.040 200.96-448 448-448v-64z" />
<glyph unicode="&#xe671;" glyph-name="line-plane" d="M687.328-152.864l-271.328 244.32v-79.744l10.336 10.016 44.576-45.888-118.912-115.552v374.944l304.672-274.368 253.024 787.168-786.624-280.928 168.832-164.544 325.92 246.72 38.624-51.040-369.792-279.936-281.728 274.592 1005.376 359.072z" />
<glyph unicode="&#xe674;" glyph-name="phone-l" d="M669.056-168.192c-151.072 0-319.584 72.704-456.288 209.088-218.56 217.984-277.824 521.312-137.824 705.536l50.944-38.72c-118.688-156.256-60.704-429.248 132.096-621.536 192.416-192 462.016-246.4 613.696-123.808l40.256-49.792c-67.488-54.496-152.032-80.768-242.88-80.768zM969.344-12.48l-241.888 242.656-43.488-43.616c-45.76-45.952-106.656-71.296-171.424-71.296-64.8 0-125.728 25.312-171.488 71.296-94.496 94.72-94.496 248.928 0 343.744l43.616 43.744-242.016 242.848 45.312 45.184 287.072-288-88.672-88.928c-69.664-69.888-69.664-183.52 0-253.376 33.728-33.856 78.528-52.48 126.176-52.48 47.616 0 92.448 18.656 126.080 52.448l88.832 89.088 287.2-288.128-45.312-45.184z" />
<glyph unicode="&#xe67a;" glyph-name="micro-phone" d="M480 224h-160v64h96v256h-160v64h224zM1024 18.752l-586.656 207.072 21.312 60.352 501.344-176.928v613.504l-501.344-176.928-21.312 60.352 586.656 207.072zM852.924 617.056l22.188-60.032-287.642-106.318-22.188 60.032 287.642 106.318zM192 224h-192v384h192v-384zM64 288h64v256h-64v-256zM256-96c-70.592 0-128 57.408-128 128v128h64v-128c0-35.296 28.704-64 64-64s64 28.704 64 64v128h128v-64h-64v-64c0-70.592-57.408-128-128-128z" />
<glyph unicode="&#xe67d;" glyph-name="home" d="M896.064-160h-768v416h64v-352h640v352h64zM968.672 266.112l-456.672 487.104-456.672-487.104-46.656 43.776 503.328 536.896 503.328-536.896zM640-32h-64v224h-128v-224h-64v288h256zM512.064 320c-70.592 0-128 57.408-128 128s57.408 128 128 128 128-57.408 128-128-57.408-128-128-128zM512.064 512c-35.296 0-64-28.704-64-64s28.704-64 64-64 64 28.704 64 64-28.736 64-64 64z" />
<glyph unicode="&#xe67f;" glyph-name="handset" d="M224 64.128h-32c-109.472 0-192 82.528-192 192s82.528 192 192 192h32v-384zM160 380.608c-57.152-13.12-96-61.472-96-124.48s38.848-111.328 96-124.48v248.96zM832 64.128h-32v384h32c109.472 0 192-82.528 192-192s-82.528-192-192-192zM864 380.608v-248.928c57.152 13.12 96 61.472 96 124.48s-38.848 111.296-96 124.448zM864-95.872v64c15.936 0 32 9.92 32 32h64c0-54.72-41.28-96-96-96zM736-31.872h128v-64h-128v64zM656.832-160.16c-52.928 0-96 43.072-96 96s43.072 96 96 96 96-43.072 96-96-43.040-96-96-96zM656.832-32.16c-17.664 0-32-14.336-32-32s14.336-32 32-32 32 14.336 32 32-14.336 32-32 32zM864 511.936h-64c0 158.912-129.184 288.192-288 288.192s-288-129.28-288-288.192h-64c0 194.176 157.92 352.192 352 352.192s352-158.016 352-352.192z" />
<glyph unicode="&#xe687;" glyph-name="expand" d="M832 384h-287.936v288h64v-224h223.936zM969.394 854.624l45.254-45.254-386.27-386.27-45.254 45.254 386.27 386.27zM480 32h-64v223.936h-224v64h288zM395.674 280.908l45.254-45.254-386.27-386.27-45.254 45.254 386.27 386.27zM64 638.88h-64v223.936h223.936v-64h-159.936zM0 574.816h64v-191.936h-64v191.936zM288.064 862.88h191.936v-64h-191.936v64zM1024-159.936h-223.936v64h159.936v159.936h64zM960 320h64v-191.936h-64v191.936zM544-96h192v-64h-192v64z" />
<glyph unicode="&#xe689;" glyph-name="trash-can" d="M832-160h-640v736h64v-672h512v672h64zM128 704h768v-64h-768v64zM672 640h-320v224h320v-224zM416 704h192v96h-192v-96zM384 480h64v-448h-64v448zM576 480h64v-448h-64v448z" />
<glyph unicode="&#xe694;" glyph-name="mini-truck" d="M222.4 681.964l63.010-192.016-60.812-19.956-63.010 192.016 60.812 19.954zM415.402 681.962l63.010-192.016-60.812-19.956-63.010 192.016 60.812 19.954zM256-96c-105.888 0-192 86.112-192 192s86.112 192 192 192 192-86.112 192-192-86.112-192-192-192zM256 224c-70.592 0-128-57.408-128-128s57.408-128 128-128 128 57.408 128 128-57.408 128-128 128zM832-96c-105.888 0-192 86.112-192 192s86.112 192 192 192 192-86.112 192-192-86.112-192-192-192zM832 224c-70.592 0-128-57.408-128-128s57.408-128 128-128 128 57.408 128 128-57.408 128-128 128zM640 282.208l-640 106.688v411.104h1024v-64h-960v-292.896l512-85.312v314.208h64zM1024 288h-64v154.816l-55.072 165.184h-136.928v-192h128v-64h-192v320h247.072l72.928-218.816z" />
<glyph unicode="&#xe697;" glyph-name="layout" d="M1024-64h-1024v512h64v-448h896v448h64zM1024 512h-1024v256h1024v-256zM64 576h896v128h-896v-128zM128 672h64v-64h-64v64zM224 672h64v-64h-64v64zM320 672h64v-64h-64v64zM384 64h-256v384h256v-384zM192 128h128v256h-128v-256zM896 64h-448v384h448v-384zM512 128h320v256h-320v-256z" />
<glyph unicode="&#xe698;" glyph-name="watch" d="M512 64c-158.816 0-288 129.184-288 288s129.184 288 288 288 288-129.184 288-288-129.184-288-288-288zM512 576c-123.488 0-224-100.512-224-224s100.512-224 224-224 224 100.512 224 224-100.512 224-224 224zM709.376 590.24l-54.496 81.76h-285.76l-54.496-81.76-53.248 35.52 73.504 110.24h354.24l73.504-110.24zM704 704h-64v96h-256v-96h-64v160h384zM689.152-32h-354.208l-73.504 110.304 53.248 35.52 54.496-81.824h285.728l54.496 81.824 53.248-35.52zM704.032-160h-383.968v160h64v-96h255.968v96h64zM672 320h-192v192h64v-128h128z" />
<glyph unicode="&#xe69b;" glyph-name="users" d="M384.032 288c-158.816 0-288.032 129.184-288.032 287.968 0 158.816 129.216 288.032 288.032 288.032 158.784 0 287.968-129.216 287.968-288.032 0-158.784-129.184-287.968-287.968-287.968zM384.032 800c-123.52 0-224.032-100.512-224.032-224.032 0-123.488 100.512-223.968 224.032-223.968 123.488 0 223.968 100.48 223.968 223.968 0 123.52-100.48 224.032-223.968 224.032zM736 288v64c88.224 0 160 71.776 160 159.968 0 88.224-71.776 160-160 160v64.032c123.52 0 224-100.512 224-224 0-123.52-100.48-224-224-224zM1024-96h-192v64h118.208l-23.744 166.304-102.432 27.52 15.936 61.984 143.808-38.112zM772-160h-776l39.488 333.504 150.912 48.928 19.744-60.864-111.936-36.288-26.208-221.28h632l-26.208 221.28-111.936 36.288 19.744 60.864 150.912-48.928z" />
<glyph unicode="&#xe69c;" glyph-name="user-male" d="M504.896 288c-158.784 0-288 129.216-288 288s129.216 288 288 288c158.784 0 287.968-129.216 287.968-288s-129.184-288-287.968-288zM504.896 800c-123.52 0-224-100.48-224-224s100.48-224 224-224c123.488 0 223.968 100.48 223.968 224s-100.448 224-223.968 224zM931.744-160h-839.488l38.048 342.592 177.792 71.136 23.808-59.456-142.208-56.864-25.952-233.408h696.512l-25.952 233.408-142.208 56.864 23.808 59.456 177.792-71.136z" />
<glyph unicode="&#xe6a0;" glyph-name="tagged" d="M512-141.248l-493.248 493.248 438.624 438.624 45.248-45.248-393.376-393.376 402.752-402.752 393.376 393.376 45.248-45.248zM1024 384h-64v416h-416v64h480zM704.064 384h-0.992c-88.224 0.576-159.552 72.736-159.072 160.928 0.512 87.712 72.256 159.072 159.936 159.072 89.216-0.576 160.576-72.736 160.064-160.928-0.512-87.712-72.256-159.072-159.936-159.072zM704.576 640c-53.248 0-96.256-42.816-96.576-95.424-0.32-52.928 42.496-96.256 95.424-96.576l0.64-32v32c52.608 0 95.616 42.816 95.936 95.424 0.32 52.96-42.496 96.256-95.424 96.576z" />
<glyph unicode="&#xe6a7;" glyph-name="bell" d="M602.93 863.050l10.188-63.186-192.026-30.964-10.19 63.188 192.026 30.964zM869.76 0h-715.52l69.76 419.68c1.472 157.024 130.080 284.32 288 284.32s286.528-127.136 288-284l69.76-420zM229.76 64h564.48l-58.24 353.312c0 122.784-100.512 222.688-224 222.688s-224-100.064-224-223.040l-0.448-5.248-57.792-347.712zM383.712 155.808l-63.424 8.384 31.712 252.48c0 87.872 71.776 159.328 160 159.328v-64c-52.928 0-96-42.752-96-95.328l-0.288-18.528-32-242.336zM512-160c-52.928 0-96 43.072-96 96h64c0-17.632 14.336-32 32-32s32 14.368 32 32h64c0-52.928-43.072-96-96-96z" />
<glyph unicode="&#xe6ab;" glyph-name="pointer" d="M262.88 251.968c-136.864 139.712-136.864 367.040 0 506.752 66.528 67.904 155.008 105.28 249.12 105.28 0.032 0 0.032 0 0.032 0 94.112 0 182.592-37.408 249.088-105.312 136.832-139.712 136.832-367.040 0.032-506.752l-45.76 44.768c112.672 115.008 112.672 302.176 0 417.184-54.336 55.552-126.592 86.112-203.36 86.112h-0.032c-76.768 0-149.024-30.592-203.424-86.080-112.672-115.008-112.672-302.176 0-417.184l-45.696-44.768zM512-156.384l-187.136 299.424 54.272 33.92 132.864-212.576 132.864 212.576 54.272-33.92zM512 320c-105.888 0-192 86.112-192 192s86.112 192 192 192 192-86.112 192-192-86.112-192-192-192zM512 640c-70.592 0-128-57.408-128-128s57.408-128 128-128 128 57.408 128 128-57.408 128-128 128z" />
<glyph unicode="&#xe6ad;" glyph-name="un-lock" d="M512-160c-211.744 0-384 172.256-384 384v192h768v-192c0-211.744-172.288-384-384-384zM192 352v-128c0-176.448 143.552-320 320-320s320 143.552 320 320v128h-640zM512 0c-52.672 0-95.552 42.624-96 95.2v64.8c0 52.928 43.072 96 96 96s96-43.072 96-96v-64.8c-0.448-52.576-43.36-95.2-96-95.2zM512 192c-17.632 0-32-14.368-32-32v-64c0-17.632 14.368-32 32-32s32 14.368 32 32v64c0 17.632-14.368 32-32 32zM287.072 461.952c-70.592 98.848-56.896 235.488 32.544 324.928 99.744 99.808 259.008 103.008 354.944 7.136l97.632-97.632-45.248-45.248-97.632 97.632c-70.976 70.944-189.6 67.744-264.448-7.136-67.232-67.232-78.016-169.184-25.696-242.496l-52.096-37.184z" />
<glyph unicode="&#xe6b1;" glyph-name="mike" d="M512-32.064c-211.744 0-384 172.864-384 385.344h64c0-177.184 143.552-321.344 320-321.344s320 142.976 320 318.688h64c0-211.008-172.256-382.688-384-382.688zM548.48 100.16l-8.928 63.36c93.76 13.216 164.48 94.784 164.48 189.76v256c0 94.912-70.72 176.512-164.48 189.76l8.928 63.36c125.152-17.696 219.52-126.496 219.52-253.12v-256c0-126.656-94.368-235.456-219.52-253.12zM475.52 100.16c-125.152 17.664-219.52 126.464-219.52 253.12v256c0 126.624 94.368 235.424 219.52 253.12l8.928-63.36c-93.728-13.248-164.448-94.848-164.448-189.76v-256c0-94.944 70.72-176.544 164.48-189.76l-8.96-63.36zM480 737.28h64v-512h-64v512zM640 673.28h64v-64h-64v64zM640 513.28h64v-64h-64v64zM640 353.28h64v-64h-64v64zM320 673.28h64v-64h-64v64zM320 513.28h64v-64h-64v64zM320 353.28h64v-64h-64v64zM352-94.72h320v-64h-320v64z" />
<glyph unicode="&#xe6b7;" glyph-name="mail-box" d="M1024-64h-1024v832h1024v-832zM64 0h896v704h-896v-704zM292.606 464.464l54.874-32.934-192.040-319.968-54.874 32.934 192.040 319.968zM512 316.224l-398.304 199.136 28.608 57.28 369.696-184.864 369.696 184.864 28.608-57.28zM731.438 464.456l192.004-320.004-54.88-32.928-192.004 320.004 54.88 32.928z" />
<glyph unicode="&#xe6bc;" glyph-name="big-eye" d="M960.256 379.904c-21.312 164.48-216.64 292.096-445.792 292.096-1.696 0-3.36 0-5.088 0-231.616-1.92-427.36-129.984-445.568-291.584l-63.616 7.2c22.176 196.384 240.864 346.176 508.672 348.384 1.824 0 3.68 0 5.536 0 260.768 0 483.936-152.032 509.344-347.904l-63.488-8.192zM509.664-32c-260.864 0-484.032 152-509.408 347.904l63.488 8.224c21.28-164.512 216.64-292.128 445.856-292.128 1.696 0 3.36 0 5.088 0 231.584 1.92 427.328 129.984 445.504 291.584l63.616-7.168c-22.144-196.416-240.768-346.208-508.608-348.416-1.824 0-3.712 0-5.536 0zM511.968 96c-139.968 0-254.784 113.888-255.936 253.888-1.184 141.12 112.704 256.928 253.888 258.112 142.112 0 256.96-113.888 258.080-253.888 0.576-68.384-25.536-132.896-73.472-181.632-47.968-48.736-112.032-75.904-180.384-76.48h-2.176zM512.032 544c-107.456-0.864-192.864-87.744-192-193.6 0.864-104.992 86.976-190.4 191.936-190.4v-32l1.632 32c51.296 0.416 99.328 20.8 135.328 57.344 35.936 36.576 55.52 84.928 55.104 136.224-0.864 105.024-87.008 190.432-192 190.432zM384 350.912c-0.608 70.592 56.384 128.512 126.976 129.088l0.512-64c-35.296-0.288-63.744-29.248-63.456-64.544l-64.032-0.544z" />
<glyph unicode="&#xe6c2;" glyph-name="locked" d="M512-160c-211.744 0-384 172.256-384 384v192h768v-192c0-211.744-172.288-384-384-384zM192 352v-128c0-176.448 143.552-320 320-320s320 143.552 320 320v128h-640zM512 0c-52.672 0-95.552 42.624-96 95.2v64.8c0 52.928 43.072 96 96 96s96-43.072 96-96v-64.8c-0.448-52.576-43.36-95.2-96-95.2zM512 192c-17.632 0-32-14.368-32-32v-64c0-17.632 14.368-32 32-32s32 14.368 32 32v64c0 17.632-14.368 32-32 32zM768 480h-64v138.048c0 100.32-86.144 181.952-192 181.952s-192-81.632-192-181.952v-138.048h-64v138.048c0 135.648 114.816 245.952 256 245.952s256-110.304 256-245.952v-138.048z" />
<glyph unicode="&#xe700;" glyph-name="up-open" d="M792.781 232.858c-22.323-22.835-53.402-24.627-80.691 0l-200.090 191.846-200.090-191.846c-27.29-24.627-58.419-22.835-80.589 0-22.323 22.784-20.89 61.286 0 82.688 20.787 21.402 240.384 230.502 240.384 230.502 11.11 11.418 25.702 17.152 40.294 17.152s29.184-5.734 40.397-17.152c0 0 219.494-209.101 240.384-230.502 20.941-21.402 22.323-59.904 0-82.688z" />
<glyph unicode="&#xe701;" glyph-name="right-open" d="M469.146 639.181c21.402-20.89 230.502-240.384 230.502-240.384 11.418-11.213 17.152-25.805 17.152-40.397s-5.734-29.184-17.152-40.294c0 0-209.101-219.597-230.502-240.384-21.402-20.89-59.904-22.323-82.688 0-22.835 22.221-24.627 53.299 0 80.589l191.846 200.090-191.846 200.090c-24.627 27.29-22.835 58.419 0 80.691 22.784 22.323 61.286 20.941 82.688 0z" />
<glyph unicode="&#xe702;" glyph-name="left-open" d="M637.542 639.181c22.835-22.323 24.627-53.402 0-80.691l-191.846-200.090 191.846-200.090c24.627-27.29 22.835-58.419 0-80.589-22.784-22.323-61.286-20.89-82.688 0-21.402 20.787-230.502 240.384-230.502 240.384-11.418 11.11-17.152 25.702-17.152 40.294s5.734 29.184 17.152 40.397c0 0 209.101 219.494 230.502 240.384 21.402 20.941 59.904 22.323 82.688 0z" />
<glyph unicode="&#xe703;" glyph-name="down-open" d="M231.219 483.942c22.323 22.835 53.402 24.627 80.691 0l200.090-191.846 200.090 191.846c27.29 24.627 58.419 22.835 80.589 0 22.323-22.784 20.89-61.286 0-82.688-20.787-21.402-240.384-230.502-240.384-230.502-11.11-11.418-25.702-17.152-40.294-17.152s-29.184 5.734-40.397 17.152c0 0-219.494 209.101-240.384 230.502-20.941 21.402-22.323 59.904 0 82.688z" />
<glyph unicode="&#xe704;" glyph-name="small-up-open" d="M336.998 248.781c-13.875-13.722-36.301-13.722-50.074 0s-13.926 35.891 0 49.613l200.090 196.096c13.824 13.722 36.198 13.722 50.125 0l200.090-196.096c13.824-13.67 13.824-35.891 0-49.613-13.875-13.722-36.301-13.722-50.125 0l-175.104 160.819-175.002-160.819z" />
<glyph unicode="&#xe705;" glyph-name="small-right-open" d="M563.2 358.4l-160.819 175.104c-13.722 13.824-13.722 36.198 0 50.074 13.722 13.824 35.891 13.824 49.613 0l196.096-200.090c13.722-13.875 13.722-36.301 0-50.125l-196.096-200.090c-13.67-13.926-35.891-13.824-49.613 0-13.722 13.773-13.722 36.198 0 50.074l160.819 175.053z" />
<glyph unicode="&#xe706;" glyph-name="small-left-open" d="M621.619 183.398c13.722-13.875 13.722-36.301 0-50.074-13.722-13.824-35.891-13.926-49.613 0l-196.096 200.090c-13.722 13.824-13.722 36.198 0 50.125l196.096 200.090c13.67 13.824 35.891 13.824 49.613 0 13.722-13.875 13.722-36.301 0-50.074l-160.819-175.155 160.819-175.002z" />
<glyph unicode="&#xe707;" glyph-name="small-down-open" d="M687.002 468.019c13.875 13.722 36.301 13.722 50.074 0 13.824-13.722 13.926-35.891 0-49.613l-200.090-196.096c-13.824-13.722-36.198-13.722-50.125 0l-200.090 196.096c-13.824 13.67-13.824 35.891 0 49.613 13.875 13.722 36.301 13.722 50.074 0l175.155-160.819 175.002 160.819z" />
<glyph unicode="&#xe708;" glyph-name="thin-up-open" d="M132.198 159.181c-13.926-13.722-36.301-13.722-50.125 0s-13.875 35.891 0 49.613l404.89 400.896c13.824 13.722 36.198 13.722 50.125 0l404.89-400.896c13.824-13.722 13.824-35.891 0-49.613-13.875-13.722-36.301-13.722-50.074 0l-379.904 365.619-379.802-365.619z" />
<glyph unicode="&#xe709;" glyph-name="thin-right-open" d="M678.4 358.4l-365.619 379.904c-13.722 13.824-13.722 36.198 0 50.125 13.722 13.824 35.891 13.824 49.613 0l400.896-404.89c13.722-13.875 13.722-36.301 0-50.125l-400.896-404.89c-13.722-13.875-35.891-13.824-49.613 0-13.722 13.773-13.722 36.198 0 50.125l365.619 379.75z" />
<glyph unicode="&#xe710;" glyph-name="thin-left-open" d="M711.219-21.402c13.722-13.926 13.722-36.301 0-50.125s-35.891-13.875-49.613 0l-400.896 404.89c-13.722 13.824-13.722 36.198 0 50.125l400.896 404.89c13.722 13.824 35.891 13.824 49.613 0 13.722-13.875 13.722-36.301 0-50.125l-365.619-379.853 365.619-379.802z" />
<glyph unicode="&#xe711;" glyph-name="thin-down-open" d="M891.802 557.619c13.926 13.722 36.301 13.722 50.125 0s13.875-35.891 0-49.613l-404.89-400.896c-13.824-13.722-36.198-13.722-50.125 0l-404.89 400.896c-13.824 13.722-13.824 35.891 0 49.613 13.875 13.722 36.301 13.722 50.125 0l379.853-365.619 379.802 365.619z" />
<glyph unicode="&#xe712;" glyph-name="huge-up-open" d="M961.536 109.568l-94.208-94.208q-11.264-10.24-26.624-10.24t-25.6 10.24l-303.104 304.128-303.104-304.128q-11.264-10.24-25.6-10.24t-26.624 10.24l-94.208 94.208q-11.264 11.264-11.264 26.624t11.264 25.6l423.936 423.936q11.264 10.24 25.6 10.24t25.6-10.24l423.936-423.936q11.264-11.264 11.264-25.6t-11.264-26.624z" />
<glyph unicode="&#xe713;" glyph-name="huge-right-open" horiz-adv-x="731" d="M632.832 369.664l-423.936-424.96q-11.264-10.24-25.6-10.24t-26.624 10.24l-94.208 95.232q-11.264 11.264-11.264 25.6t11.264 25.6l303.104 304.128-303.104 303.104q-11.264 11.264-11.264 25.6t11.264 25.6l94.208 95.232q11.264 10.24 26.624 10.24t25.6-10.24l423.936-423.936q10.24-11.264 10.24-25.6t-10.24-25.6z" />
<glyph unicode="&#xe714;" glyph-name="huge-left-open" horiz-adv-x="731" d="M668.672 698.368l-303.104-303.104 303.104-304.128q11.264-10.24 11.264-25.6t-11.264-25.6l-94.208-95.232q-11.264-10.24-25.6-10.24t-25.6 10.24l-423.936 424.96q-11.264 10.24-11.264 25.6t11.264 25.6l423.936 423.936q10.24 10.24 25.6 10.24t25.6-10.24l94.208-95.232q11.264-10.24 11.264-25.6t-11.264-25.6z" />
<glyph unicode="&#xe715;" glyph-name="huge-down-open" d="M961.536 408.576l-423.936-422.912q-10.24-11.264-25.6-11.264t-25.6 11.264l-423.936 422.912q-11.264 11.264-11.264 26.624t11.264 25.6l94.208 94.208q11.264 11.264 26.624 11.264t25.6-11.264l303.104-303.104 303.104 303.104q11.264 11.264 25.6 11.264t26.624-11.264l94.208-94.208q11.264-11.264 11.264-25.6t-11.264-26.624z" />
<glyph unicode="&#xe716;" glyph-name="angle-up" horiz-adv-x="657" d="M614.4 193.536q0-7.168-6.144-13.312l-28.672-27.648q-5.12-6.144-12.288-6.144t-13.312 6.144l-225.28 224.256-224.256-224.256q-5.12-6.144-13.312-6.144t-13.312 6.144l-27.648 27.648q-6.144 6.144-6.144 13.312t6.144 13.312l266.24 266.24q5.12 6.144 12.288 6.144t13.312-6.144l266.24-266.24q6.144-5.12 6.144-13.312z" />
<glyph unicode="&#xe717;" glyph-name="angle-right" horiz-adv-x="366" d="M339.968 321.536q0-7.168-6.144-13.312l-266.24-266.24q-5.12-5.12-12.288-5.12t-13.312 5.12l-28.672 28.672q-6.144 6.144-6.144 13.312t6.144 13.312l224.256 224.256-224.256 225.28q-6.144 5.12-6.144 12.288t6.144 13.312l28.672 28.672q5.12 6.144 13.312 6.144t12.288-6.144l266.24-266.24q6.144-5.12 6.144-13.312z" />
<glyph unicode="&#xe718;" glyph-name="angle-left" horiz-adv-x="366" d="M358.4 559.104q0-7.168-6.144-12.288l-224.256-225.28 224.256-224.256q6.144-6.144 6.144-13.312t-6.144-13.312l-28.672-28.672q-5.12-5.12-12.288-5.12t-13.312 5.12l-266.24 266.24q-6.144 6.144-6.144 13.312t6.144 13.312l266.24 266.24q5.12 6.144 13.312 6.144t12.288-6.144l28.672-28.672q6.144-5.12 6.144-13.312z" />
<glyph unicode="&#xe719;" glyph-name="angle-down" horiz-adv-x="657" d="M614.4 449.536q0-7.168-6.144-13.312l-266.24-266.24q-5.12-5.12-13.312-5.12t-12.288 5.12l-266.24 266.24q-6.144 6.144-6.144 13.312t6.144 13.312l27.648 28.672q6.144 6.144 13.312 6.144t13.312-6.144l224.256-224.256 225.28 224.256q5.12 6.144 13.312 6.144t12.288-6.144l28.672-28.672q6.144-5.12 6.144-13.312z" />
<glyph unicode="&#xe720;" glyph-name="basket" d="M922.72 160h-627.040l-160 576h-103.68v64h152.32l160-576h524.96l52.384 288h-505.664v64h582.336zM384-96c-52.928 0-96 43.072-96 96s43.072 96 96 96 96-43.072 96-96-43.072-96-96-96zM384 32c-17.632 0-32-14.336-32-32s14.368-32 32-32 32 14.336 32 32-14.368 32-32 32zM800-96c-52.928 0-96 43.072-96 96s43.072 96 96 96 96-43.072 96-96-43.072-96-96-96zM800 32c-17.664 0-32-14.336-32-32s14.336-32 32-32 32 14.336 32 32-14.336 32-32 32zM480 448h64v-160h-64v160zM672 448h64v-160h-64v160z" />
<glyph unicode="&#xe722;" glyph-name="heart" d="M522.24-119.456l-450.784 418.432c-46.080 55.072-71.456 125.056-71.456 197.024 0 167.616 136.384 304 304 304 78.144 0 152.192-29.376 208-81.6 55.808 52.224 129.856 81.6 208 81.6 167.616 0 304-136.384 304-304 0-71.968-25.376-141.952-71.456-197.024l-3.040-3.168-352-319.488-43.008 47.36 350.304 317.984c35.104 42.752 55.2 98.88 55.2 154.336 0 132.352-107.648 240-240 240-71.296 0-138.176-30.848-183.52-84.64l-24.48-28.992-24.48 29.024c-45.344 53.76-112.224 84.608-183.52 84.608-132.352 0-240-107.648-240-240 0-55.52 20.128-111.68 55.296-154.464l446.464-414.080-43.52-46.912zM486.656 88.096l-322.24 299.552c-23.488 31.040-36.416 69.536-36.416 108.352 0 97.056 78.944 176 176 176v-64c-61.76 0-112-50.24-112-112 0-23.744 7.968-48.224 21.888-67.648l316.32-293.344-43.552-46.912zM622.112 543.744l-56.064 30.88c22.656 41.12 60.032 70.976 105.248 84.032 45.216 13.088 92.704 7.776 133.856-14.848l-30.88-56.064c-26.112 14.4-56.384 17.76-85.184 9.44-28.768-8.32-52.576-27.296-66.976-53.44z" />
<glyph unicode="&#xe723;" glyph-name="search" d="M416 32c-229.376 0-416 186.624-416 416s186.624 416 416 416 416-186.624 416-416-186.624-416-416-416zM416 800c-194.080 0-352-157.92-352-352s157.92-352 352-352 352 157.92 352 352-157.92 352-352 352zM928.032-160c-24.608 0-49.152 9.344-67.872 28.064l-178.432 172.96 44.576 45.952 178.784-173.312c12.8-12.832 33.152-12.8 45.6-0.352 5.984 6.016 9.312 14.080 9.312 22.688s-3.328 16.608-9.344 22.624l-173.632 179.136 45.952 44.544 173.28-178.752c17.76-17.76 27.744-41.888 27.744-67.552s-9.984-49.792-28.064-67.904c-18.752-18.752-43.296-28.096-67.904-28.096zM235.136 267.072c-99.808 99.776-99.808 262.144 0 362.016l45.248-45.248c-74.848-74.88-74.848-196.672 0-271.488l-45.248-45.28z" />
<glyph unicode="&#xe724;" glyph-name="cancel" horiz-adv-x="804" d="M741.376 114.688q0-22.528-15.36-38.912l-77.824-77.824q-16.384-15.36-38.912-15.36t-38.912 15.36l-167.936 168.96-167.936-168.96q-16.384-15.36-38.912-15.36t-38.912 15.36l-77.824 77.824q-16.384 16.384-16.384 38.912t16.384 38.912l167.936 167.936-167.936 167.936q-16.384 16.384-16.384 38.912t16.384 38.912l77.824 77.824q16.384 16.384 38.912 16.384t38.912-16.384l167.936-167.936 167.936 167.936q16.384 16.384 38.912 16.384t38.912-16.384l77.824-77.824q15.36-15.36 15.36-38.912t-15.36-38.912l-167.936-167.936 167.936-167.936q15.36-15.36 15.36-38.912z" />
<glyph unicode="&#xe725;" glyph-name="cancel-mini" horiz-adv-x="481" d="M462.848 198.656q18.432-18.432 18.432-44.032t-18.432-44.032q-18.432-16.384-44.032-16.384t-44.032 16.384l-135.168 155.648-135.168-155.648q-18.432-16.384-44.032-16.384t-44.032 16.384q-16.384 18.432-16.384 44.032t16.384 44.032l141.312 159.744-141.312 161.792q-16.384 18.432-16.384 44.032t16.384 44.032q18.432 16.384 44.032 16.384t44.032-16.384l135.168-155.648 135.168 155.648q18.432 16.384 44.032 16.384t44.032-16.384q18.432-18.432 18.432-44.032t-18.432-44.032l-141.312-161.792z" />
<glyph unicode="&#xe726;" glyph-name="up-dir" horiz-adv-x="585" d="M584.704 175.104q0-14.336-10.24-25.6t-25.6-10.24h-512q-15.36 0-25.6 10.24t-11.264 25.6 11.264 26.624l256 256q10.24 10.24 25.6 10.24t25.6-10.24l256-256q10.24-11.264 10.24-26.624z" />
<glyph unicode="&#xe727;" glyph-name="right-dir" horiz-adv-x="366" d="M328.704 358.4q0-14.336-10.24-25.6l-256-256q-11.264-11.264-25.6-11.264t-25.6 11.264-11.264 25.6v512q0 15.36 11.264 25.6t25.6 11.264 25.6-11.264l256-256q10.24-10.24 10.24-25.6z" />
<glyph unicode="&#xe728;" glyph-name="left-dir" horiz-adv-x="366" d="M365.568 614.4v-512q0-14.336-10.24-25.6t-26.624-11.264-25.6 11.264l-256 256q-10.24 11.264-10.24 25.6t10.24 25.6l256 256q11.264 11.264 25.6 11.264t26.624-11.264 10.24-25.6z" />
<glyph unicode="&#xe729;" glyph-name="down-dir" horiz-adv-x="585" d="M584.704 467.968q0-14.336-10.24-25.6l-256-256q-11.264-11.264-25.6-11.264t-25.6 11.264l-256 256q-11.264 11.264-11.264 25.6t11.264 25.6 25.6 11.264h512q14.336 0 25.6-11.264t10.24-25.6z" />
<glyph unicode="&#xe730;" glyph-name="phone" horiz-adv-x="804" d="M804.864 161.792q0-15.36-6.144-39.936t-12.288-38.912q-11.264-28.672-69.632-61.44-53.248-28.672-105.472-28.672-16.384 0-30.72 2.048t-32.768 7.168-26.624 8.192-31.744 11.264-28.672 10.24q-55.296 20.48-99.328 48.128-73.728 45.056-151.552 122.88t-122.88 151.552q-27.648 44.032-47.104 99.328-2.048 5.12-10.24 28.672t-12.288 31.744-8.192 26.624-7.168 32.768-2.048 29.696q0 53.248 29.696 106.496 31.744 58.368 60.416 69.632 14.336 6.144 38.912 12.288t39.936 6.144q8.192 0 12.288-2.048 10.24-3.072 30.72-44.032 6.144-10.24 16.384-30.72t20.48-35.84 17.408-30.72q2.048-2.048 10.24-14.336t12.288-20.48 4.096-16.384q0-11.264-16.384-28.672t-35.84-30.72-34.816-30.72-16.384-25.6q0-5.12 3.072-13.312t4.096-11.264 8.192-14.336 7.168-10.24q43.008-78.848 99.328-135.168t134.144-99.328q1.024 0 10.24-6.144t14.336-8.192 11.264-5.12 13.312-2.048q10.24 0 25.6 15.36t30.72 35.84 31.744 35.84 28.672 16.384q7.168 0 15.36-4.096t20.48-12.288 14.336-10.24q14.336-8.192 30.72-17.408t35.84-20.48 31.744-17.408q39.936-19.456 43.008-29.696 2.048-4.096 2.048-12.288z" />
<glyph unicode="&#xe731;" glyph-name="pencil" horiz-adv-x="878" d="M207.872-7.168l51.2 52.224-134.144 134.144-52.224-52.224v-61.44h73.728v-72.704h61.44zM505.856 523.264q0 12.288-12.288 12.288-5.12 0-9.216-4.096l-310.272-309.248q-4.096-4.096-4.096-10.24 0-12.288 13.312-12.288 5.12 0 9.216 4.096l310.272 309.248q3.072 4.096 3.072 10.24zM475.136 632.832l237.568-237.568-475.136-476.16h-237.568v238.592zM865.28 577.536q0-29.696-20.48-51.2l-95.232-95.232-237.568 238.592 95.232 94.208q20.48 21.504 51.2 21.504 29.696 0 52.224-21.504l134.144-134.144q20.48-22.528 20.48-52.224z" />
<glyph unicode="&#xe732;" glyph-name="pencil-mini" horiz-adv-x="799" d="M735.232 696.32q32.768-32.768 48.128-65.536t15.36-49.152v-16.384l-258.048-258.048-296.96-294.912-243.712-53.248 51.2 245.76 296.96 294.912 258.048 258.048q55.296 12.288 129.024-61.44zM229.376 40.96l24.576 24.576q-2.048 45.056-53.248 96.256-22.528 22.528-46.080 35.84t-35.84 13.312l-14.336 2.048-22.528-24.576-18.432-81.92q28.672-16.384 47.104-34.816 24.576-24.576 36.864-49.152z" />
<glyph unicode="&#xe733;" glyph-name="menu" horiz-adv-x="878" d="M877.568 102.4v-72.704q0-15.36-10.24-25.6t-26.624-11.264h-803.84q-15.36 0-25.6 11.264t-11.264 25.6v72.704q0 15.36 11.264 25.6t25.6 11.264h803.84q15.36 0 26.624-11.264t10.24-25.6zM877.568 395.264v-73.728q0-14.336-10.24-25.6t-26.624-10.24h-803.84q-15.36 0-25.6 10.24t-11.264 25.6v73.728q0 14.336 11.264 25.6t25.6 10.24h803.84q15.36 0 26.624-10.24t10.24-25.6zM877.568 687.104v-72.704q0-15.36-10.24-25.6t-26.624-11.264h-803.84q-15.36 0-25.6 11.264t-11.264 25.6v72.704q0 15.36 11.264 26.624t25.6 10.24h803.84q15.36 0 26.624-10.24t10.24-26.624z" />
<glyph unicode="&#xe734;" glyph-name="location" d="M512 767.539c-141.414 0-256-114.125-256-255.488 0-244.429 256-563.2 256-563.2s256 318.822 256 563.2c0 141.312-114.586 255.488-256 255.488zM512 370.688c-76.39 0-138.24 61.901-138.24 138.24s61.85 138.24 138.24 138.24c76.288 0 138.189-61.901 138.189-138.24s-61.901-138.24-138.189-138.24z" />
<glyph unicode="&#xe735;" glyph-name="mail" d="M951.296 11.264v438.272q-18.432-20.48-39.936-37.888-152.576-116.736-243.712-192.512-28.672-24.576-47.104-38.912t-49.152-27.648-58.368-13.312h-2.048q-26.624 0-58.368 13.312t-49.152 27.648-47.104 38.912q-90.112 75.776-243.712 192.512-21.504 17.408-39.936 37.888v-438.272q0-8.192 6.144-13.312t12.288-5.12h841.728q7.168 0 12.288 5.12t6.144 13.312zM951.296 611.328v14.336t-1.024 7.168-1.024 7.168-3.072 5.12-5.12 4.096-8.192 2.048h-841.728q-7.168 0-12.288-6.144t-6.144-12.288q0-96.256 83.968-162.816 110.592-86.016 229.376-181.248 4.096-2.048 20.48-16.384t25.6-21.504 25.6-17.408 28.672-16.384 24.576-5.12h2.048q11.264 0 24.576 5.12t28.672 16.384 25.6 17.408 25.6 21.504 20.48 16.384q118.784 95.232 229.376 181.248 30.72 24.576 57.344 66.56t26.624 74.752zM1024 632.832v-621.568q0-37.888-26.624-64.512t-64.512-27.648h-841.728q-36.864 0-64.512 27.648t-26.624 64.512v621.568q0 37.888 26.624 64.512t64.512 26.624h841.728q37.888 0 64.512-26.624t26.624-64.512z" />
<glyph unicode="&#xe736;" glyph-name="clock" d="M512 752c-229.792 0-416-186.24-416-416s186.208-416 416-416c229.728 0 416 186.24 416 416s-186.24 416-416 416zM508.64-0.864c-185.568 0-336 150.432-336 336s150.432 336 336 336c185.536 0 336-150.432 336-336s-150.464-336-336-336zM605.76 315.808h-95.36v161.024c0 17.472-14.176 31.68-31.648 31.68-17.504 0-31.68-14.176-31.68-31.68v-192.672c0-17.504 14.176-31.648 31.68-31.648h127.008c17.504 0 31.68 14.144 31.68 31.648 0 17.472-14.176 31.648-31.68 31.648z" />
<glyph unicode="&#xe737;" glyph-name="ok" d="M954.368 546.816q0-22.528-15.36-38.912l-491.52-491.52q-16.384-15.36-38.912-15.36t-38.912 15.36l-284.672 284.672q-15.36 16.384-15.36 38.912t15.36 38.912l77.824 77.824q16.384 16.384 38.912 16.384t38.912-16.384l167.936-168.96 374.784 375.808q16.384 16.384 38.912 16.384t38.912-16.384l77.824-77.824q15.36-16.384 15.36-38.912z" />
<glyph unicode="&#xe738;" glyph-name="plus-squared-alt" horiz-adv-x="804" d="M658.432 413.696v-36.864q0-8.192-5.12-13.312t-13.312-5.12h-200.704v-200.704q0-8.192-5.12-13.312t-13.312-5.12h-36.864q-8.192 0-13.312 5.12t-5.12 13.312v200.704h-200.704q-8.192 0-13.312 5.12t-5.12 13.312v36.864q0 7.168 5.12 12.288t13.312 5.12h200.704v201.728q0 8.192 5.12 13.312t13.312 5.12h36.864q8.192 0 13.312-5.12t5.12-13.312v-201.728h200.704q8.192 0 13.312-5.12t5.12-12.288zM731.136 157.696v475.136q0 37.888-26.624 64.512t-64.512 26.624h-475.136q-37.888 0-64.512-26.624t-27.648-64.512v-475.136q0-37.888 27.648-64.512t64.512-27.648h475.136q37.888 0 64.512 27.648t26.624 64.512zM804.864 632.832v-475.136q0-68.608-48.128-116.736t-116.736-48.128h-475.136q-68.608 0-116.736 48.128t-48.128 116.736v475.136q0 67.584 48.128 115.712t116.736 49.152h475.136q67.584 0 116.736-49.152t48.128-115.712z" />
<glyph unicode="&#xe739;" glyph-name="minus-squared-alt" horiz-adv-x="804" d="M658.432 413.696v-36.864q0-8.192-5.12-13.312t-13.312-5.12h-475.136q-8.192 0-13.312 5.12t-5.12 13.312v36.864q0 7.168 5.12 12.288t13.312 5.12h475.136q8.192 0 13.312-5.12t5.12-12.288zM731.136 157.696v475.136q0 37.888-26.624 64.512t-64.512 26.624h-475.136q-37.888 0-64.512-26.624t-27.648-64.512v-475.136q0-37.888 27.648-64.512t64.512-27.648h475.136q37.888 0 64.512 27.648t26.624 64.512zM804.864 632.832v-475.136q0-68.608-48.128-116.736t-116.736-48.128h-475.136q-68.608 0-116.736 48.128t-48.128 116.736v475.136q0 67.584 48.128 115.712t116.736 49.152h475.136q67.584 0 116.736-49.152t48.128-115.712z" />
<glyph unicode="&#xe740;" glyph-name="plus-squared" horiz-adv-x="878" d="M731.136 321.536v73.728q0 14.336-10.24 25.6t-25.6 10.24h-183.296v183.296q0 15.36-11.264 25.6t-25.6 11.264h-72.704q-15.36 0-25.6-11.264t-11.264-25.6v-183.296h-182.272q-15.36 0-26.624-10.24t-10.24-25.6v-73.728q0-14.336 10.24-25.6t26.624-10.24h182.272v-183.296q0-14.336 11.264-25.6t25.6-11.264h72.704q15.36 0 25.6 11.264t11.264 25.6v183.296h183.296q14.336 0 25.6 10.24t10.24 25.6zM877.568 632.832v-548.864q0-67.584-48.128-115.712t-116.736-49.152h-547.84q-68.608 0-116.736 49.152t-48.128 115.712v548.864q0 67.584 48.128 115.712t116.736 49.152h547.84q68.608 0 116.736-49.152t48.128-115.712z" />
<glyph unicode="&#xe741;" glyph-name="minus-squared" horiz-adv-x="878" d="M731.136 321.536v73.728q0 14.336-10.24 25.6t-25.6 10.24h-512q-15.36 0-26.624-10.24t-10.24-25.6v-73.728q0-14.336 10.24-25.6t26.624-10.24h512q14.336 0 25.6 10.24t10.24 25.6zM877.568 632.832v-548.864q0-67.584-48.128-115.712t-116.736-49.152h-547.84q-68.608 0-116.736 49.152t-48.128 115.712v548.864q0 67.584 48.128 115.712t116.736 49.152h547.84q68.608 0 116.736-49.152t48.128-115.712z" />
<glyph unicode="&#xe742;" glyph-name="truck" d="M863.008 448c-17.696 0-32 0-32 0h-63.328l-0.416-40.192c19.136-10.912 31.744-31.648 31.744-55.808l1.344-222.016h-607.36v222.016c0 23.616 12.928 44.032 32 55.136v40.864h-64c0 0-14.336 0-32 0-17.696 0-32 14.336-32 32v32c0 17.696 14.304 32 32 32 17.664 0 32 0 32 0v-64h64v96c0 35.328 28.672 64 64 64h416c35.328 0 64-28.672 64-64l-0.992-96h63.008v64c0 0 14.304 0 32 0 17.664 0 32-14.304 32-32v-32c0-17.664-14.336-32-32-32zM384.992 160h224v32h-224v-32zM384.992 224h224v32h-224v-32zM384.992 288h224v32h-224v-32zM256.992 192c0-17.664 14.304-32 32-32h32c17.664 0 32 14.336 32 32 0 17.696-14.336 32-32 32h-32c-17.664 0-32-14.304-32-32zM704.992 544c0 17.696-14.304 32-32 32h-352c-17.696 0-32-14.304-32-32v-160h416v160zM704.992 224h-32c-17.696 0-32-14.304-32-32 0-17.664 14.304-32 32-32h32c17.664 0 32 14.336 32 32 0 17.696-14.336 32-32 32zM736.992 672h-480c-35.328 0-64-28.672-64-64v160c0 17.696 14.304 32 32 32h544c17.664 0 32-14.304 32-32v-160c0 35.328-28.64 64-64 64zM800.992 65.984c0-17.664-14.336-32-32-32h-544c-17.696 0-32 14.336-32 32 0 17.696 0 32 0 32h608c0 0 0-14.304 0-32zM352.992-64c0-17.664-14.336-32-32-32h-32c-17.696 0-32 14.336-32 32v64h96v-64zM736.992-64c0-17.664-14.336-32-32-32h-32c-17.696 0-32 14.336-32 32v64h96v-64z" />
<glyph unicode="&#xe743;" glyph-name="dollar" d="M0 64v576h1024v-576h-1024zM64 577.984v-449.984h896v449.984h-896zM672 352c0 106.016-71.616 192-160 192h416v-384h-416c88.384 0 160 85.984 160 192zM800 288c26.496 0 48 28.672 48 64s-21.504 64-48 64-48-28.672-48-64 21.504-64 48-64zM579.776 432.704c-0.48-1.76-1.152-3.008-1.984-3.808-0.864-0.8-2.016-1.184-3.488-1.184s-3.776 0.896-7.008 2.752c-3.2 1.888-7.136 3.872-11.776 6.048-4.672 2.176-10.048 4.16-16.192 5.984-6.144 1.792-12.864 2.656-20.192 2.656-5.76 0-10.752-0.672-15.008-2.080-4.256-1.376-7.84-3.328-10.688-5.76-2.88-2.464-4.992-5.44-6.4-8.864-1.376-3.424-2.080-7.104-2.080-10.944 0-5.76 1.568-10.72 4.704-14.912s7.328-7.936 12.608-11.2c5.28-3.296 11.232-6.336 17.92-9.184 6.624-2.88 13.44-5.92 20.384-9.088 6.944-3.232 13.728-6.848 20.384-10.912 6.688-4.064 12.64-8.928 17.824-14.592s9.376-12.32 12.608-19.968c3.2-7.68 4.768-16.672 4.768-27.104 0-13.6-2.496-25.504-7.552-35.776-5.088-10.24-11.936-18.816-20.64-25.664-8.672-6.88-18.784-12.032-30.368-15.488-1.472-0.448-3.072-0.64-4.576-0.992v-34.944h-31.456v30.816c-0.416 0-0.768-0.064-1.152-0.064-8.928 0-17.248 0.704-24.896 2.144-7.68 1.472-14.432 3.232-20.288 5.248-5.888 2.048-10.752 4.192-14.688 6.432s-6.752 4.224-8.48 5.952c-1.728 1.728-2.976 4.224-3.712 7.488-0.736 3.296-1.12 7.968-1.12 14.112 0 4.128 0.128 7.584 0.416 10.4s0.704 5.056 1.312 6.816 1.376 2.976 2.4 3.712c0.992 0.704 2.144 1.088 3.488 1.088 1.856 0 4.48-1.088 7.904-3.296 3.392-2.208 7.776-4.64 13.088-7.296 5.344-2.688 11.68-5.088 19.104-7.328 7.392-2.176 15.968-3.296 25.696-3.296 6.4 0 12.128 0.768 17.184 2.304s9.376 3.68 12.896 6.496 6.208 6.272 8.096 10.4c1.888 4.16 2.816 8.736 2.816 13.856 0 5.856-1.632 10.88-4.8 15.104-3.2 4.192-7.36 7.904-12.512 11.2-5.12 3.264-10.944 6.304-17.472 9.184s-13.248 5.92-20.192 9.088c-6.912 3.2-13.664 6.816-20.192 10.912-6.528 4.064-12.352 8.896-17.472 14.56s-9.312 12.384-12.48 20.096c-3.2 7.712-4.8 16.992-4.8 27.776 0 12.416 2.304 23.296 6.88 32.672 4.608 9.376 10.784 17.184 18.592 23.36s16.992 10.816 27.584 13.888c5.44 1.6 11.072 2.72 16.832 3.488v33.088h31.456v-33.088c1.248-0.16 2.496-0.096 3.744-0.288 6.112-0.928 11.872-2.176 17.184-3.776 5.344-1.568 10.048-3.328 14.208-5.344 4.128-1.984 6.848-3.616 8.192-4.96 1.344-1.312 2.208-2.432 2.72-3.36 0.448-0.928 0.832-2.176 1.184-3.712 0.32-1.536 0.576-3.456 0.672-5.824 0.128-2.304 0.192-5.216 0.192-8.672 0-3.872-0.096-7.168-0.288-9.856-0.288-2.528-0.608-4.768-1.088-6.496zM352 352c0-106.016 71.616-192 160-192h-416v384h416c-88.384 0-160-85.984-160-192zM224 416c-26.528 0-48-28.672-48-64s21.472-64 48-64c26.496 0 48 28.672 48 64s-21.504 64-48 64z" />
<glyph unicode="&#xe744;" glyph-name="lifebuoy" d="M512 896c-282.77 0-512-229.23-512-512s229.23-512 512-512 512 229.23 512 512-229.23 512-512 512zM320 384c0 106.040 85.96 192 192 192s192-85.96 192-192-85.96-192-192-192-192 85.96-192 192zM925.98 212.524v0l-177.42 73.49c12.518 30.184 19.44 63.276 19.44 97.986s-6.922 67.802-19.44 97.986l177.42 73.49c21.908-52.822 34.020-110.73 34.020-171.476s-12.114-118.654-34.020-171.476v0zM683.478 797.98v0 0l-73.49-177.42c-30.184 12.518-63.276 19.44-97.988 19.44s-67.802-6.922-97.986-19.44l-73.49 177.422c52.822 21.904 110.732 34.018 171.476 34.018 60.746 0 118.654-12.114 171.478-34.020zM98.020 555.476l177.422-73.49c-12.518-30.184-19.442-63.276-19.442-97.986s6.922-67.802 19.44-97.986l-177.42-73.49c-21.906 52.822-34.020 110.73-34.020 171.476s12.114 118.654 34.020 171.476zM340.524-29.98l73.49 177.42c30.184-12.518 63.276-19.44 97.986-19.44s67.802 6.922 97.986 19.44l73.49-177.42c-52.822-21.904-110.73-34.020-171.476-34.020-60.744 0-118.654 12.114-171.476 34.020z" />
<glyph unicode="&#xe745;" glyph-name="facebook" horiz-adv-x="585" d="M547.84 863.232v-150.528h-89.088q-49.152 0-66.56-20.48t-17.408-61.44v-108.544h167.936l-22.528-168.96h-145.408v-434.176h-175.104v434.176h-145.408v168.96h145.408v124.928q0 106.496 59.392 164.864t158.72 58.368q83.968 0 130.048-7.168z" />
</font>
</defs>
</svg>
